<?xml version="1.0" encoding="UTF-8"?>
<svg width="106px" height="106px" viewBox="0 0 106 106" version="1.1" xmlns="http://www.w3.org/2000/svg" xmlns:xlink="http://www.w3.org/1999/xlink">
    <title>xxxhdpi/light</title>
    <g id="light" stroke="none" stroke-width="1" fill="none" fill-rule="evenodd">
        <polygon id="Rectangle-Copy-3备份-2" fill-opacity="0.05" fill="#000000" points="0 0 106 0 106 106 0 106"></polygon>
        <path d="M62.3333333,41 C65.278852,41 67.6666667,43.3878147 67.6666667,46.3333333 L67.6666667,59.6666667 C67.6666667,62.6121853 65.278852,65 62.3333333,65 L43.6666667,65 C40.721148,65 38.3333333,62.6121853 38.3333333,59.6666667 L38.3333333,46.3333333 C38.3333333,43.3878147 40.721148,41 43.6666667,41 L62.3333333,41 Z M40.3333333,59.6666667 C40.3333333,61.4339779 41.7087146,62.8800516 43.4474991,62.9929098 L43.6666667,63 C44.0348565,63 44.3333333,62.7015232 44.3333333,62.3333333 L44.3333333,58.4666667 C44.3333333,58.0248389 43.9751611,57.6666667 43.5333333,57.6666667 L41.1333333,57.6666667 C40.6915055,57.6666667 40.3333333,58.0248389 40.3333333,58.4666667 L40.3333333,59.6666667 Z M59.6666667,43 L46.3333333,43 L46.3333333,63 L59.6666667,63 L59.6666667,43 Z M64.8666667,57.6666667 L62.4666667,57.6666667 C62.0248389,57.6666667 61.6666667,58.0248389 61.6666667,58.4666667 L61.6666667,62.3333333 C61.6666667,62.6680514 61.9133417,62.9451553 62.2348182,62.9927716 L62.3333333,63 C64.1006445,63 65.5467182,61.6246188 65.6595764,59.8858343 L65.6666667,59.6666667 L65.6666667,58.4666667 C65.6666667,58.0248389 65.3084945,57.6666667 64.8666667,57.6666667 Z M51.1333333,50.121539 C51.2737627,50.121539 51.411718,50.158504 51.5333333,50.2287187 L55.1333333,52.3071797 C55.5159674,52.5280936 55.6470676,53.0173659 55.4261537,53.4 C55.355939,53.5216154 55.2549487,53.6226057 55.1333333,53.6928203 L51.5333333,55.7712813 C51.1506992,55.9921952 50.6614269,55.8610951 50.440513,55.478461 C50.3702983,55.3568456 50.3333333,55.2188903 50.3333333,55.078461 L50.3333333,50.921539 C50.3333333,50.4797112 50.6915055,50.121539 51.1333333,50.121539 Z M65.6666667,54.8666667 L65.6666667,51.1333333 C65.6666667,50.6915055 65.3084945,50.3333333 64.8666667,50.3333333 L62.4666667,50.3333333 C62.0248389,50.3333333 61.6666667,50.6915055 61.6666667,51.1333333 L61.6666667,54.8666667 C61.6666667,55.3084945 62.0248389,55.6666667 62.4666667,55.6666667 L64.8666667,55.6666667 C65.3084945,55.6666667 65.6666667,55.3084945 65.6666667,54.8666667 Z M41.1333333,55.6666667 L43.5333333,55.6666667 C43.9751611,55.6666667 44.3333333,55.3084945 44.3333333,54.8666667 L44.3333333,51.1333333 C44.3333333,50.6915055 43.9751611,50.3333333 43.5333333,50.3333333 L41.1333333,50.3333333 C40.6915055,50.3333333 40.3333333,50.6915055 40.3333333,51.1333333 L40.3333333,54.8666667 C40.3333333,55.3084945 40.6915055,55.6666667 41.1333333,55.6666667 Z M62.5525009,43.0070902 L62.3333333,43 C61.9651435,43 61.6666667,43.2984768 61.6666667,43.6666667 L61.6666667,47.5333333 C61.6666667,47.9751611 62.0248389,48.3333333 62.4666667,48.3333333 L64.8666667,48.3333333 C65.3084945,48.3333333 65.6666667,47.9751611 65.6666667,47.5333333 L65.6666667,46.3333333 C65.6666667,44.5660221 64.2912854,43.1199484 62.5525009,43.0070902 Z M43.7651818,43.0072284 L43.6666667,43 C41.8993555,43 40.4532818,44.3753812 40.3404236,46.1141657 L40.3333333,46.3333333 L40.3333333,47.5333333 C40.3333333,47.9751611 40.6915055,48.3333333 41.1333333,48.3333333 L43.5333333,48.3333333 C43.9751611,48.3333333 44.3333333,47.9751611 44.3333333,47.5333333 L44.3333333,43.6666667 C44.3333333,43.3319486 44.0866583,43.0548447 43.7651818,43.0072284 Z" id="形状" fill-opacity="0.4" fill="#000000" fill-rule="nonzero"></path>
    </g>
</svg>