<?xml version="1.0" encoding="UTF-8"?>
<svg width="89px" height="89px" viewBox="0 0 89 89" version="1.1" xmlns="http://www.w3.org/2000/svg" xmlns:xlink="http://www.w3.org/1999/xlink">
    <title>xxhdpi/light</title>
    <g id="light" stroke="none" stroke-width="1" fill="none" fill-rule="evenodd">
        <rect fill="#000000" opacity="0.05" x="0" y="0" width="89" height="89"></rect>
        <path d="M39.4163134,54.5 C37.9822629,54.5 37.2843408,54.365225 36.5589266,53.9772693 C35.8985956,53.6241204 35.3758796,53.1014044 35.0227307,52.4410734 L34.9396174,52.2785158 L34.9396174,52.2785158 L34.8662033,52.1186495 L34.6698636,51.6640257 L34.7030689,51.6293767 C34.6696564,51.5040082 34.6402583,51.3683967 34.6149557,51.2184631 L34.5698353,50.8982912 C34.5302236,50.5566059 34.5072101,50.1467547 34.5014432,49.6361052 L34.5,39.6277704 C34.5,37.9796199 34.6586246,37.3024909 34.957955,36.6946503 L35.0342654,36.5463086 C35.3662789,35.9254973 35.8461046,35.4319193 36.4541436,35.0851736 L36.5463086,35.0342654 C36.6149246,34.9975692 36.6834821,34.9626786 36.7533127,34.9296202 L36.9679559,34.8359679 C37.4102081,34.6597621 37.9462349,34.5504661 38.8636781,34.513796 L39.355516,34.5015395 L39.355516,34.5015395 L49.3722296,34.5 C51.0203801,34.5 51.6975091,34.6586246 52.3053497,34.957955 L52.4536914,35.0342654 C53.0745027,35.3662789 53.5680807,35.8461046 53.9148264,36.4541436 L53.9657346,36.5463086 C54.0024308,36.6149246 54.0373214,36.6834821 54.0703798,36.7533127 L54.1640321,36.9679559 C54.3402379,37.4102081 54.4495339,37.9462349 54.486204,38.8636781 L54.4984605,39.355516 C54.4994857,39.4432303 54.5,39.5339263 54.5,39.6277704 L54.5,46.142 L53,44.641 L53,39.6277704 L52.9954923,39.1442936 L52.9954923,39.1442936 L52.9813578,38.735981 C52.9428503,37.9872479 52.8410775,37.624052 52.6430148,37.2537069 C52.4342003,36.8632577 52.1367423,36.5657997 51.7462931,36.3569852 C51.4022837,36.173007 51.0644428,36.0721109 50.4180412,36.0278287 L50.0329658,36.0091303 C49.8931458,36.004663 49.7412338,36.0019081 49.5753381,36.0007065 L39.323058,36.001658 L38.8926733,36.0117109 L38.8926733,36.0117109 L38.5289448,36.0316396 C38.0281281,36.0693782 37.7170661,36.1434087 37.437311,36.2670564 L37.2537069,36.3569852 L37.2537069,36.3569852 C36.8632577,36.5657997 36.5657997,36.8632577 36.3569852,37.2537069 C36.1589225,37.624052 36.0571497,37.9872479 36.0186422,38.735981 L36.0045077,39.1442936 L36.0045077,39.1442936 L36,39.6277704 L36,39.6277704 L36.001658,49.676942 L36.0115544,50.1031398 C36.0139851,50.1684453 36.0168182,50.2310274 36.0200715,50.2910966 L38.7311769,47.5802089 C39.3425314,46.9786014 39.7324512,46.7222995 40.247863,46.56608 C40.6814821,46.4346516 41.1285609,46.4182231 41.5724777,46.5189505 L41.7624857,46.5692985 L41.846174,46.5960881 C42.2691238,46.7383618 42.6211575,46.9666055 43.1105907,47.4278151 L43.2791097,47.5903817 L43.3931669,47.704383 C43.6597602,47.9705871 44.0766907,47.9947436 44.3703757,47.7770762 L44.4545102,47.7045215 L47.2829536,44.8767818 C47.8943081,44.2751743 48.2842279,44.0188724 48.7996397,43.8626529 C49.2952043,43.712449 49.8083491,43.712449 50.3039137,43.8626529 C50.7707741,44.0041566 51.1333112,44.2272388 51.6519794,44.7145886 L51.8310088,44.8870769 L54.5,47.5558052 L54.5,49.5836866 C54.5,51.0177371 54.365225,51.7156592 53.9772693,52.4410734 C53.6241204,53.1014044 53.1014044,53.6241204 52.4410734,53.9772693 C51.8059659,54.3169285 51.1919315,54.4625201 50.0865089,54.4935054 L49.5836866,54.5 L39.4163134,54.5 Z M49.8688157,45.2981632 C49.656944,45.2339456 49.4466094,45.2339456 49.2347377,45.2981632 C49.0155059,45.3646115 48.8397968,45.4685666 48.5121992,45.7751225 L48.2691544,46.0113198 L45.5148897,48.7654623 C44.6779774,49.6015262 43.3466086,49.641483 42.4622137,48.8850055 L42.3330244,48.7655605 L42.1006245,48.5368111 L42.1006245,48.5368111 L41.8916292,48.3457342 C41.7030866,48.1824802 41.5702901,48.0975961 41.4427312,48.0451918 L41.3791544,48.0214839 L41.317039,48.0015903 C41.1051673,47.9373727 40.8948327,47.9373727 40.682961,48.0015903 C40.4637292,48.0680387 40.2880201,48.1719937 39.960429,48.4785432 L39.7173895,48.7147352 L36.4809467,51.9519096 L36.5527515,52.0549571 L36.5527515,52.0549571 L36.6554142,52.1761293 L36.779815,52.3041516 L36.779815,52.3041516 L36.6889989,52.2148959 L36.7459339,52.2732824 L36.7459339,52.2732824 L36.779815,52.3041516 C36.9189555,52.4355762 37.0767846,52.5483957 37.2537069,52.6430148 C37.5977163,52.826993 37.9355572,52.9278891 38.5819588,52.9721713 L38.9670342,52.9908697 C39.0369442,52.9931033 39.1098772,52.9949089 39.1860697,52.9963062 L39.6277704,53 L49.3722296,53 L49.8557064,52.9954923 L49.8557064,52.9954923 L50.264019,52.9813578 C51.0127521,52.9428503 51.375948,52.8410775 51.7462931,52.6430148 C52.1367423,52.4342003 52.4342003,52.1367423 52.6430148,51.7462931 C52.826993,51.4022837 52.9278891,51.0644428 52.9721713,50.4180412 L52.9908697,50.0329658 C52.9931033,49.9630558 52.9949089,49.8901228 52.9963062,49.8139303 L53,49.3722296 L52.99975,48.177 L50.7743429,45.9517016 L50.5364253,45.7247616 C50.3234433,45.5302078 50.1780212,45.4268162 50.0349338,45.3606146 L49.9632826,45.330363 L49.8688157,45.2981632 Z M40.75,39.75 C41.7164983,39.75 42.5,40.5335017 42.5,41.5 C42.5,42.4664983 41.7164983,43.25 40.75,43.25 C39.7835017,43.25 39,42.4664983 39,41.5 C39,40.5335017 39.7835017,39.75 40.75,39.75 Z" id="形状" fill-opacity="0.4" fill="#000000" fill-rule="nonzero"></path>
    </g>
</svg>