<?xml version="1.0" encoding="UTF-8"?>
<svg width="24px" height="24px" viewBox="0 0 24 24" version="1.1" xmlns="http://www.w3.org/2000/svg" xmlns:xlink="http://www.w3.org/1999/xlink">
    <title>ic/edit/photo/label/bold</title>
    <defs>
        <path d="M13.3299061,22 C14.2939892,22 15.187184,21.9027778 16.0094902,21.7083333 C16.8317964,21.5138889 17.5359552,21.1944444 18.1219666,20.75 C18.7079779,20.3055556 19.16639,19.7222222 19.4972029,19 C19.8280157,18.2777778 19.9934221,17.3981481 19.9934221,16.3611111 C19.9934221,15.0277778 19.6484316,13.9166667 18.9584505,13.0277778 C18.2684694,12.1388889 17.2145942,11.5925926 15.7968248,11.3888889 L15.7968248,11.3888889 L15.7968248,11.3333333 C16.2127038,11.2592593 16.6144051,11.125 17.0019288,10.9305556 C17.3894524,10.7361111 17.7344429,10.4675926 18.0369004,10.125 C18.3393579,9.78240741 18.5851046,9.35648148 18.7741405,8.84722222 C18.9631764,8.33796296 19.0576943,7.73148148 19.0576943,7.02777778 C19.0576943,6.28703704 18.934821,5.60648148 18.6890743,4.98611111 C18.4433276,4.36574074 18.0510781,3.83333333 17.5123257,3.38888889 C16.9735734,2.94444444 16.2788664,2.60185185 15.4282047,2.36111111 C14.5775431,2.12037037 13.5567492,2 12.3658229,2 L12.3658229,2 L4.99342214,2 L4.99342214,22 L13.3299061,22 Z M11.7987151,10.8333333 L6.92158849,10.8333333 L6.92158849,3.61111111 L11.3733843,3.61111111 C12.4319855,3.61111111 13.3251802,3.6712963 14.0529685,3.79166667 C14.7807567,3.91203704 15.371494,4.10648148 15.8251802,4.375 C16.2788664,4.64351852 16.6096792,4.99537037 16.8176187,5.43055556 C17.0255582,5.86574074 17.129528,6.39814815 17.129528,7.02777778 C17.129528,7.63888889 17.0397359,8.18055556 16.8601518,8.65277778 C16.6805677,9.125 16.3828361,9.52314815 15.9669571,9.84722222 C15.5510781,10.1712963 15.0028739,10.4166667 14.3223446,10.5833333 C13.6418153,10.75 12.8006055,10.8333333 11.7987151,10.8333333 L11.7987151,10.8333333 Z M11.8270705,20.3888889 L6.92158849,20.3888889 L6.92158849,12.4444444 L12.0539136,12.4444444 C12.961286,12.4444444 13.7835923,12.4953704 14.5208323,12.5972222 C15.2580724,12.6990741 15.8913427,12.8888889 16.4206433,13.1666667 C16.9499439,13.4444444 17.3563711,13.837963 17.639925,14.3472222 C17.9234788,14.8564815 18.0652558,15.5277778 18.0652558,16.3611111 C18.0652558,17.2314815 17.9376565,17.9305556 17.6824581,18.4583333 C17.4272596,18.9861111 17.0444618,19.3935185 16.5340649,19.6805556 C16.0236679,19.9675926 15.3762199,20.1574074 14.5917208,20.25 C13.8072218,20.3425926 12.8856717,20.3888889 11.8270705,20.3888889 L11.8270705,20.3888889 Z" id="path-1"></path>
    </defs>
    <g id="ic/edit/photo/label/bold" stroke="none" stroke-width="1" fill="none" fill-rule="evenodd">
        <mask id="mask-2" fill="white">
            <use xlink:href="#path-1"></use>
        </mask>
        <use id="B" fill="#000000" fill-rule="nonzero" xlink:href="#path-1"></use>
    </g>
</svg>