<?xml version="1.0" encoding="UTF-8"?>
<svg width="24px" height="24px" viewBox="0 0 24 24" version="1.1" xmlns="http://www.w3.org/2000/svg" xmlns:xlink="http://www.w3.org/1999/xlink">
    <title>ic/collage/frame</title>
    <g id="ic/collage/frame" stroke="none" stroke-width="1" fill="none" fill-rule="evenodd">
        <path d="M19.5,3 C20.3284271,3 21,3.67157288 21,4.5 L21,19.5 C21,20.3284271 20.3284271,21 19.5,21 L4.5,21 C3.67157288,21 3,20.3284271 3,19.5 L3,4.5 C3,3.67157288 3.67157288,3 4.5,3 L19.5,3 Z M19.4859287,4.68005437 L4.48592867,4.68005437 L4.48592867,19.6800544 L19.4859287,19.6800544 L19.4859287,4.68005437 Z M16.6383648,6.47305257 C17.1099197,6.47305257 17.4921906,6.8553234 17.4921906,7.32687837 L17.4921906,16.6731216 C17.4921906,17.1446766 17.1099197,17.5269474 16.6383648,17.5269474 L7.36163522,17.5269474 C6.89008025,17.5269474 6.50780943,17.1446766 6.50780943,16.6731216 L6.50780943,7.32687836 C6.50780943,6.8553234 6.89008025,6.47305257 7.36163522,6.47305257 L16.6383648,6.47305257 Z M15.985848,7.97939519 L8.01415205,7.97939519 L8.01415205,16.0206048 L15.985848,16.0206048 L15.985848,7.97939519 Z" id="形状" fill="#000000" fill-rule="nonzero"></path>
    </g>
</svg>