<?xml version="1.0" encoding="UTF-8"?>
<svg width="24px" height="24px" viewBox="0 0 24 24" version="1.1" xmlns="http://www.w3.org/2000/svg" xmlns:xlink="http://www.w3.org/1999/xlink">
    <title>ic_albums</title>
    <g id="ic_albums" stroke="none" stroke-width="1" fill="none" fill-rule="evenodd">
        <g id="ic/navigation/photo_action" transform="translate(1.000000, 2.500000)" fill="#62778C" fill-rule="nonzero">
            <path d="M7.6277704,0 L15.590287,0 L16.1639919,0.00573234605 C17.6957725,0.038155269 18.4567843,0.20760588 19.1055302,0.500998691 L19.33091,0.609674177 C19.3680538,0.628637387 19.4050772,0.648024135 19.4421143,0.667831759 C20.2569291,1.10359949 20.8964005,1.74307093 21.3321682,2.55788574 L21.4459422,2.78101661 C21.7900981,3.49387056 21.980395,4.29857399 21.9985643,6.11445738 L21.9985643,11.5769164 L21.9985643,11.5769164 L21.986204,12.0687544 C21.9373105,13.2920119 21.7593044,13.837196 21.4657346,14.3861238 C21.2201431,14.84534 20.8936745,15.2349391 20.4942613,15.5469886 L20.4985008,15.2985782 L20.4985008,15.2985782 L20.4985008,6.26898935 C20.4828731,5.0238355 20.3429795,4.35435009 19.9811141,3.65943347 C19.6264537,2.97835293 19.1000248,2.4376962 18.4368674,2.07345034 C17.7384113,1.6898163 17.0663405,1.5490982 15.7768869,1.54092211 L3.8458278,1.54054054 C3.67164175,1.54054054 3.50841225,1.54275922 3.35468879,1.54744528 C3.67147849,1.128281 4.0717147,0.788080999 4.54630859,0.534265408 C4.61492458,0.497569178 4.68348206,0.462678631 4.75331273,0.429620231 L4.96795593,0.335967933 C5.41020809,0.159762063 5.94623491,0.0504661079 6.86367807,0.0137959606 L7.35551601,0.00153950013 C7.44323035,0.000514269314 7.53392632,0 7.6277704,0 Z" id="路径" fill-opacity="0.6"></path>
            <path d="M4.4867991,2.56756757 L15.0132009,2.56756757 C16.2980367,2.56756757 16.9084651,2.67773776 17.4024605,2.8869903 L17.608671,2.98270391 C17.6423936,2.99965644 17.6759288,3.01710642 17.70948,3.0350498 C18.2798504,3.34008721 18.7274804,3.78771722 19.0325178,4.35808759 L19.1342249,4.56082971 C19.3097147,4.9381367 19.4245252,5.3627187 19.4732782,6.10522584 L19.4932872,6.54338624 C19.4955194,6.62221019 19.4971976,6.7040683 19.4983178,6.78916392 L19.5,14.5132009 C19.5,14.6967489 19.4977516,14.8665334 19.4932872,15.0241813 L19.4732782,15.4623417 C19.4245252,16.2048489 19.3097147,16.6294309 19.1342249,17.0067379 L19.0325178,17.20948 L19.0325178,17.20948 C18.7274804,17.7798504 18.2798504,18.2274804 17.70948,18.5325178 L17.5067379,18.6342249 C17.1294309,18.8097147 16.7048489,18.9245252 15.9623417,18.9732782 L15.5241813,18.9932872 C15.4453574,18.9955194 15.3634993,18.9971976 15.2784036,18.9983178 L4.4867991,19 C4.30325112,19 4.13346657,18.9977516 3.97581868,18.9932872 L3.53765827,18.9732782 C2.79515113,18.9245252 2.37056913,18.8097147 1.99326214,18.6342249 L1.79052002,18.5325178 L1.79052002,18.5325178 C1.22014965,18.2274804 0.772519644,17.7798504 0.467482232,17.20948 L0.365775094,17.0067379 C0.190285337,16.6294309 0.0754748399,16.2048489 0.0267218462,15.4623417 L0.00671278758,15.0241813 C0.0022483712,14.8665334 0,14.6967489 0,14.5132009 L0,7.05436667 C0,6.87081869 0.0022483712,6.70103413 0.00671278758,6.54338624 L0.0267218462,6.10522584 C0.0754748399,5.3627187 0.190285337,4.9381367 0.365775094,4.56082971 L0.467482232,4.35808759 L0.467482232,4.35808759 C0.772519644,3.78771722 1.22014965,3.34008721 1.79052002,3.0350498 L1.891329,2.98270391 L1.891329,2.98270391 L2.0975395,2.8869903 C2.59153487,2.67773776 3.20196327,2.56756757 4.4867991,2.56756757 Z" id="Rectangle-9"></path>
        </g>
    </g>
</svg>