<?xml version="1.0" encoding="UTF-8"?>
<svg width="24px" height="24px" viewBox="0 0 24 24" version="1.1" xmlns="http://www.w3.org/2000/svg" xmlns:xlink="http://www.w3.org/1999/xlink">
    <title> 5</title>
    <g id="5" stroke="none" stroke-width="1" fill="none" fill-rule="evenodd">
        <rect id="矩形" fill="#007DFF" x="2" y="2" width="20" height="20" rx="4"></rect>
        <path d="M8.00735257,13.8106439 L7.9623516,13.8076439 L7.90025721,13.8049883 C7.89854749,13.8048064 7.89683905,13.80462 7.89513188,13.8044294 L8.00735257,13.8106439 C7.94276807,13.8106439 7.87961357,13.8045213 7.81843782,13.792825 C7.80720232,13.7906843 7.79625464,13.788395 7.78537372,13.7859282 C7.75900363,13.7799577 7.73252558,13.7727952 7.70650666,13.7645976 C7.69729939,13.761698 7.68818779,13.7586796 7.67913494,13.7555346 C7.6532213,13.7463019 7.63655851,13.7398179 7.62011929,13.7329073 C7.6037479,13.726027 7.58725536,13.7185618 7.57100745,13.7106692 C7.4208815,13.6376558 7.2921256,13.5286548 7.19564602,13.3948366 C7.07902127,13.2332091 7.00942798,13.0349465 7.0073516,12.8202288 L7.00735257,8.8106439 C7.00735257,8.25835915 7.45506782,7.8106439 8.00735257,7.8106439 C8.52018841,7.8106439 8.94285973,8.19668409 9.00062484,8.69402277 L9.00735257,8.8106439 L9.0073516,11.8006439 L16.9475151,11.7249034 C17.4997745,11.7196098 17.9517605,12.1630132 17.957101,12.7152726 C17.9619696,13.2280848 17.5799984,13.6544369 17.0832362,13.7169663 L16.9666849,13.7248115 L8.01693748,13.810598 L8.00735257,13.8106439 Z" id="形状结合" fill="#FFFFFF" fill-rule="nonzero" transform="rotate(-45.00, 12.482249,10.810644)"></path>
    </g>
</svg>