<?xml version="1.0" encoding="UTF-8"?>
<svg width="24px" height="24px" viewBox="0 0 24 24" version="1.1" xmlns="http://www.w3.org/2000/svg" xmlns:xlink="http://www.w3.org/1999/xlink">
    <title>ic_edit_photo_toolbar_more</title>
    <g id="ic_edit_photo_toolbar_more" stroke="none" stroke-width="1" fill="none" fill-rule="evenodd">
        <path d="M9.57091452,12.9290855 C10.3993416,12.9290855 11.0709145,13.6006584 11.0709145,14.4290855 L11.0709145,19.11881 C11.0709145,19.9472371 10.3993416,20.61881 9.57091452,20.61881 L4.88119003,20.61881 C4.0527629,20.61881 3.38119003,19.9472371 3.38119003,19.11881 L3.38119003,14.4290855 C3.38119003,13.6006584 4.0527629,12.9290855 4.88119003,12.9290855 L9.57091452,12.9290855 Z M19.1830701,12.9290855 C20.0114973,12.9290855 20.6830701,13.6006584 20.6830701,14.4290855 L20.6830701,19.11881 C20.6830701,19.9472371 20.0114973,20.61881 19.1830701,20.61881 L14.4933456,20.61881 C13.6649185,20.61881 12.9933456,19.9472371 12.9933456,19.11881 L12.9933456,14.4290855 C12.9933456,13.6006584 13.6649185,12.9290855 14.4933456,12.9290855 L19.1830701,12.9290855 Z M9.57091452,14.4290855 L4.88119003,14.4290855 L4.88119003,19.11881 L9.57091452,19.11881 L9.57091452,14.4290855 Z M19.1830701,14.4290855 L14.4933456,14.4290855 L14.4933456,19.11881 L19.1830701,19.11881 L19.1830701,14.4290855 Z M17.8988681,2.94884569 L21.0511543,6.10113194 C21.6369408,6.68691838 21.6369408,7.63666585 21.0511543,8.22245228 L17.8988681,11.3747385 C17.3130816,11.960525 16.3633342,11.960525 15.7775477,11.3747385 L12.6252615,8.22245228 C12.039475,7.63666585 12.039475,6.68691838 12.6252615,6.10113194 L15.7775477,2.94884569 C16.3633342,2.36305925 17.3130816,2.36305925 17.8988681,2.94884569 Z M9.57091452,3.31692987 C10.3993416,3.31692987 11.0709145,3.98850274 11.0709145,4.81692987 L11.0709145,9.50665436 C11.0709145,10.3350815 10.3993416,11.0066544 9.57091452,11.0066544 L4.88119003,11.0066544 C4.0527629,11.0066544 3.38119003,10.3350815 3.38119003,9.50665436 L3.38119003,4.81692987 C3.38119003,3.98850274 4.0527629,3.31692987 4.88119003,3.31692987 L9.57091452,3.31692987 Z M16.8382079,4.00950586 L13.6859216,7.16179211 L16.8382079,10.3140784 L19.9904941,7.16179211 L16.8382079,4.00950586 Z M9.57091452,4.81692987 L4.88119003,4.81692987 L4.88119003,9.50665436 L9.57091452,9.50665436 L9.57091452,4.81692987 Z" id="形状" fill="#000000" fill-rule="nonzero"></path>
    </g>
</svg>