<?xml version="1.0" encoding="UTF-8"?>
<svg width="24px" height="24px" viewBox="0 0 24 24" version="1.1" xmlns="http://www.w3.org/2000/svg" xmlns:xlink="http://www.w3.org/1999/xlink">
    <title>ic_edit_photo_toolbar_adjust</title>
    <defs>
        <path d="M8.33642332,13.0505141 C10.0616896,13.0505141 11.5034979,14.264142 11.8547008,15.8842504 L21.5872248,15.8846605 C22.0014384,15.8846605 22.3372248,16.2204469 22.3372248,16.6346605 C22.3372248,17.0143562 22.0550709,17.3281514 21.6889954,17.3778139 L21.5872248,17.3846605 L11.8614729,17.3848347 C11.5224064,19.0209076 10.0730098,20.2505141 8.33642332,20.2505141 C6.55883162,20.2505141 5.08215257,18.9621538 4.78922315,17.2682703 L2.37204238,17.2674947 C1.95782881,17.2674947 1.62204238,16.9317083 1.62204238,16.5174947 C1.62204238,16.137799 1.90419626,15.8240038 2.27027182,15.7743414 L2.37204238,15.7674947 L4.84550375,15.767531 C5.23919269,14.2061994 6.65284561,13.0505141 8.33642332,13.0505141 Z M8.33642332,14.5505141 C7.17662534,14.5505141 6.23642332,15.4907161 6.23642332,16.6505141 C6.23642332,17.810312 7.17662534,18.7505141 8.33642332,18.7505141 C9.49622129,18.7505141 10.4364233,17.810312 10.4364233,16.6505141 C10.4364233,15.4907161 9.49622129,14.5505141 8.33642332,14.5505141 Z M15.6314998,3.72031539 C17.3148088,3.72031539 18.7282792,4.87563186 19.1222308,6.43658468 L21.5958808,6.43729607 C22.0100943,6.43729607 22.3458808,6.77308251 22.3458808,7.18729607 C22.3458808,7.60150963 22.0100943,7.93729607 21.5958808,7.93729607 L19.1788731,7.93706971 C18.8863529,9.63144708 17.409442,10.9203154 15.6314998,10.9203154 C13.8949133,10.9203154 12.4455168,9.69070892 12.1064503,8.05463607 L2.38069833,8.05446182 C1.96648477,8.05446182 1.63069833,7.71867538 1.63069833,7.30446182 C1.63069833,6.89024825 1.96648477,6.55446182 2.38069833,6.55446182 L12.1130256,6.5549602 C12.4638863,4.93439704 13.9059111,3.72031539 15.6314998,3.72031539 Z M15.6314998,5.22031539 C14.4717019,5.22031539 13.5314998,6.16051741 13.5314998,7.32031539 C13.5314998,8.48011336 14.4717019,9.42031539 15.6314998,9.42031539 C16.7912978,9.42031539 17.7314998,8.48011336 17.7314998,7.32031539 C17.7314998,6.16051741 16.7912978,5.22031539 15.6314998,5.22031539 Z" id="path-1"></path>
    </defs>
    <g id="ic_edit_photo_toolbar_adjust" stroke="none" stroke-width="1" fill="none" fill-rule="evenodd">
        <mask id="mask-2" fill="white">
            <use xlink:href="#path-1"></use>
        </mask>
        <use id="形状" fill="#000000" fill-rule="nonzero" xlink:href="#path-1"></use>
    </g>
</svg>