<?xml version="1.0" encoding="UTF-8"?>
<svg width="24px" height="24px" viewBox="0 0 24 24" version="1.1" xmlns="http://www.w3.org/2000/svg" xmlns:xlink="http://www.w3.org/1999/xlink">
    <title>ic_edit_photo_more_doodle</title>
    <g id="ic_edit_photo_more_doodle" stroke="none" stroke-width="1" fill="none" fill-rule="evenodd">
        <path d="M6.66543203,14.7117704 C8.17391255,14.7117704 9.40152652,15.9115588 9.40124963,17.3862422 C9.40124963,19.455674 7.67976469,21.1391694 5.56329394,21.1391694 C4.36974958,21.1391694 3.14019669,20.656004 2.23222769,19.8638187 C3.06961073,19.50316 3.83929739,18.7344794 3.92223362,17.5917722 L3.92961452,17.3862422 C3.92961452,15.9115588 5.15722849,14.7117704 6.66543203,14.7117704 Z M6.66543203,15.9617704 C5.84119281,15.9617704 5.17961452,16.6084642 5.17961452,17.3862422 C5.17961452,18.2710051 4.89943157,19.0587691 4.42129891,19.6971112 C4.79744665,19.8219177 5.18647379,19.8891694 5.56329394,19.8891694 C6.99553881,19.8891694 8.15124961,18.7590319 8.15124961,17.3860074 C8.15139562,16.6083754 7.4899082,15.9617704 6.66543203,15.9617704 Z M20.090149,2.84927837 L21.1928313,3.95196068 C21.7786177,4.53774712 21.7786177,5.48749459 21.1928313,6.07328103 L12.293311,14.9728014 C11.7075245,15.5585878 10.757777,15.5585878 10.1719906,14.9728014 L9.0693083,13.8701191 C8.48352186,13.2843326 8.48352186,12.3345851 9.0693083,11.7487987 L17.9688286,2.84927837 C18.5546151,2.26349193 19.5043625,2.26349193 20.090149,2.84927837 Z M19.0294888,3.90993854 L10.1299685,12.8094589 L11.2326508,13.9121412 L20.1321711,5.01262086 L19.0294888,3.90993854 Z" id="形状" fill="#000000" fill-rule="nonzero"></path>
    </g>
</svg>