<?xml version="1.0" encoding="UTF-8"?>
<svg width="24px" height="24px" viewBox="0 0 24 24" version="1.1" xmlns="http://www.w3.org/2000/svg" xmlns:xlink="http://www.w3.org/1999/xlink">
    <title>ic_edit_photo_adjust_shadows</title>
    <defs>
        <path d="M8.89738327,3.54909333 C6.42269832,4.45791339 4.45791339,6.42269832 3.54909333,8.89738327 L8.89738327,3.54909333 L8.89738327,3.54909333 Z M14.2200691,3.27589082 L3.27589082,14.2200691 C3.12466095,13.6239685 3.03292003,13.0041429 3.00735778,12.3672818 L12.3672818,3.00735778 C13.0041429,3.03292003 13.6239685,3.12466095 14.2200691,3.27589082 L14.2200691,3.27589082 Z M17.5952397,4.95020366 L4.95020366,17.5952397 C4.63337335,17.1965787 4.34964562,16.7704286 4.10317699,16.320946 L16.320946,4.10317699 C16.7704286,4.34964562 17.1965787,4.63337335 17.5952397,4.95020366 Z M19.9035613,7.69136539 L7.69136539,19.9035613 C7.24134472,19.6577116 6.81463029,19.3745461 6.41538176,19.0582246 L19.0582246,6.41538176 C19.3745461,6.81463029 19.6577116,7.24134472 19.9035613,7.69136539 Z M20.9933596,11.6510505 L11.6510505,20.9933596 C11.0131672,20.9690411 10.3922921,20.8783349 9.79513698,20.7279527 L20.7279527,9.79513698 C20.8783349,10.3922921 20.9690411,11.0131672 20.9933596,11.6510505 L20.9933596,11.6510505 Z M15.1328205,20.4397526 L20.4397526,15.1328205 C19.5298133,17.5832251 17.5832251,19.5298133 15.1328205,20.4397526 L15.1328205,20.4397526 Z" id="path-1"></path>
    </defs>
    <g id="ic_edit_photo_adjust_shadows" stroke="none" stroke-width="1" fill="none" fill-rule="evenodd">
        <mask id="mask-2" fill="white">
            <use xlink:href="#path-1"></use>
        </mask>
        <use id="形状" fill="#000000" fill-rule="nonzero" xlink:href="#path-1"></use>
    </g>
</svg>