<?xml version="1.0" encoding="UTF-8"?>
<svg width="24px" height="24px" viewBox="0 0 24 24" version="1.1" xmlns="http://www.w3.org/2000/svg" xmlns:xlink="http://www.w3.org/1999/xlink">
    <title>ic_edit_photo_doodle_pen_arrow</title>
    <g id="ic_edit_photo_doodle_pen_arrow" stroke="none" stroke-width="1" fill="none" fill-rule="evenodd">
        <path d="M18.6278608,17.0320859 L18.6978296,17.0348984 L18.6978296,17.0348984 L18.7479546,17.0428671 L18.7479546,17.0428671 L18.8181108,17.0633359 L18.8181108,17.0633359 L18.8840483,17.0936484 L18.8840483,17.0936484 L18.9711108,17.1523359 L21.1213608,19.0130859 L21.1723608,19.0668359 L21.2268608,19.1500859 L21.2633608,19.2408359 L21.2633608,19.2408359 L21.2815483,19.3484921 L21.2815483,19.3484921 L21.2836108,19.3790859 L21.2801108,19.4303359 L21.2611108,19.5245859 L21.2611108,19.5245859 L21.2353608,19.5903359 L21.2091108,19.6383359 L21.2091108,19.6383359 L21.1563608,19.7112109 L21.1563608,19.7112109 L21.1048608,19.7623359 L18.9656108,21.5555859 C18.8718608,21.6343359 18.7578608,21.6725859 18.6446108,21.6725859 C18.5018608,21.6725859 18.3603608,21.6118359 18.2613608,21.4938359 C18.2054858,21.4270859 18.1712671,21.3502109 18.1550132,21.2712265 L18.1446108,21.1918359 L18.1443608,20.1293359 L12.7553469,20.1293359 C12.3410969,20.1293359 12.0053469,19.7935859 12.0053469,19.3793359 C12.0053469,18.9996067 12.2874701,18.6858394 12.6535687,18.6361818 L12.7553469,18.6293359 L18.1438608,18.6293359 L18.1438608,17.5303359 L18.1519858,17.4462109 L18.1519858,17.4462109 L18.1781108,17.3518359 L18.1781108,17.3518359 L18.2213608,17.2653359 L18.2213608,17.2653359 L18.2656108,17.2033359 L18.3347046,17.1394921 L18.3347046,17.1394921 L18.3725171,17.1121484 L18.3725171,17.1121484 L18.4579233,17.0678359 L18.4579233,17.0678359 L18.5293608,17.0445859 L18.5293608,17.0445859 L18.5713608,17.0375859 C18.5903608,17.0350859 18.6088608,17.0325859 18.6278608,17.0320859 Z M7.18640954,14.9344483 C8.62103366,14.9344483 9.78854268,16.0754941 9.78827934,17.4779759 C9.78827934,19.4460866 8.15107967,21.0471567 6.13823301,21.0471567 C5.00312552,21.0471567 3.83377251,20.5876475 2.9702584,19.8342483 C3.76388685,19.4924345 4.49357816,18.7652568 4.57667808,17.6847114 L4.58453982,17.4779759 C4.58453982,16.0754941 5.75204884,14.9344483 7.18640954,14.9344483 Z M7.18640954,16.4344483 C6.57283228,16.4344483 6.08453982,16.9117549 6.08453982,17.4779759 C6.08453982,18.2244694 5.89085106,18.90414 5.55071558,19.4869155 C5.74771355,19.5264738 5.94514266,19.5471567 6.13823301,19.5471567 C7.33002174,19.5471567 8.28827932,18.6101033 8.28827932,17.4776941 C8.2883856,16.9116483 7.80020218,16.4344483 7.18640954,16.4344483 Z M19.8425458,3.42749605 L20.5986266,4.18357693 C21.1844131,4.76936336 21.1844131,5.71911083 20.5986266,6.30489727 L12.1867646,14.7167593 C11.6009782,15.3025457 10.6512307,15.3025457 10.0654443,14.7167593 L9.3093634,13.9606784 C8.72357696,13.374892 8.72357696,12.4251445 9.3093634,11.8393581 L17.7212254,3.42749605 C18.3070119,2.84170961 19.2567593,2.84170961 19.8425458,3.42749605 Z M18.7818856,4.48815622 L10.3700236,12.9000182 L11.1261044,13.6560991 L19.5379665,5.2442371 L18.7818856,4.48815622 Z" id="形状" fill="#000000" fill-rule="nonzero"></path>
    </g>
</svg>