<?xml version="1.0" encoding="UTF-8"?>
<svg width="24px" height="24px" viewBox="0 0 24 24" version="1.1" xmlns="http://www.w3.org/2000/svg" xmlns:xlink="http://www.w3.org/1999/xlink">
    <title>ic_edit_photo_doodle_style_free备份</title>
    <g id="ic_edit_photo_doodle_style_free备份" stroke="none" stroke-width="1" fill="none" fill-rule="evenodd">
        <path d="M1.59892778,12.0362206 C1.27465792,11.7784961 1.22071228,11.3066964 1.47843681,10.9824266 C1.73616134,10.6581567 2.20796101,10.6042111 2.53223087,10.8619356 C4.1115352,12.1171416 5.59818139,12.7213594 6.99835536,12.7070593 C8.87278496,12.6879154 9.90926143,12.4555675 11.1150281,11.8675827 L12.3523821,11.2313991 L12.3523821,11.2313991 L12.678235,11.0694947 L12.678235,11.0694947 L12.9754892,10.9291076 L12.9754892,10.9291076 C14.1792423,10.3775126 15.255681,10.1228166 16.7254667,10.1078054 C18.7877344,10.0867432 21.0433389,10.8969721 22.6518422,12.4467145 C22.9501332,12.7341085 22.958967,13.2089001 22.671573,13.5071911 C22.384179,13.8054821 21.9093874,13.8143159 21.6110964,13.5269219 C20.2999045,12.2636299 18.4260153,11.5905157 16.7407856,11.6077272 C15.488175,11.6205203 14.6181399,11.8263792 13.6003541,12.2927585 L13.3295608,12.4207236 L13.3295608,12.4207236 L12.6966892,12.7409269 L12.6966892,12.7409269 L12.0293447,13.0870734 L12.0293447,13.0870734 C10.5148744,13.8659201 9.23974228,14.1842459 7.01367429,14.206981 C5.23596978,14.225137 3.42899231,13.4907268 1.59892778,12.0362206 Z" id="路径" fill="#000000" fill-rule="nonzero"></path>
    </g>
</svg>