<?xml version="1.0" encoding="UTF-8"?>
<svg width="24px" height="24px" viewBox="0 0 24 24" version="1.1" xmlns="http://www.w3.org/2000/svg" xmlns:xlink="http://www.w3.org/1999/xlink">
    <title>ic_edit_photo_toolbar_filter</title>
    <g id="ic_edit_photo_toolbar_filter" stroke="none" stroke-width="1" fill="none" fill-rule="evenodd">
        <path d="M6.04699528,10.5906598 C6.236987,10.9711567 6.08296828,11.4338373 5.70298482,11.6240858 C5.52805672,11.7116681 5.37778874,11.8009404 5.25757016,11.8891843 L4.98086832,12.1139468 L4.98086832,12.1139468 L4.75375641,12.3247221 L4.75375641,12.3247221 L4.54392829,12.5325012 L4.54392829,12.5325012 C4.4147831,12.6618209 4.30254838,12.8174328 4.14678943,13.0773819 C4.00878883,13.3076937 3.90577548,13.5191564 3.82548212,13.7402615 L3.7377865,14.0011423 L3.7377865,14.0011423 L3.63985446,14.3391059 C3.627092,14.3851156 3.61348376,14.4346406 3.598811,14.4883769 C3.55702944,14.749646 3.53846154,14.9802758 3.53846154,15.2486486 C3.53846154,15.5601935 3.56399082,15.820944 3.61805833,16.0375063 L3.71950295,16.4269877 L3.71950295,16.4269877 L3.77575153,16.6145195 L3.77575153,16.6145195 L3.83262642,16.7745734 C3.84262116,16.8003983 3.85298954,16.8261576 3.86390533,16.8523909 C3.95909324,17.0811506 4.07592293,17.2858788 4.24556302,17.5285493 C4.41324061,17.7684124 4.58945345,17.9847071 4.7490565,18.1445259 C4.90865954,18.3043446 5.12466239,18.4807956 5.3642018,18.6486997 C5.56708535,18.7909101 5.80359365,18.9230932 6.0618997,19.0406637 C6.30525043,19.1514271 6.54373105,19.226053 6.78363373,19.263011 L6.81875703,19.2684219 L6.85323253,19.2770524 C7.06950258,19.331193 7.32990127,19.3567568 7.64102564,19.3567568 L7.85904856,19.3553817 L7.85904856,19.3553817 L8.05444354,19.3461189 L8.05444354,19.3461189 L8.32777444,19.3091965 L8.32777444,19.3091965 L8.46294677,19.2860788 L8.46294677,19.2860788 L8.58354785,19.2580153 L8.58354785,19.2580153 L9.07694911,19.116853 L9.29002052,19.0292887 L9.29002052,19.0292887 L9.41232027,18.9729864 L9.41232027,18.9729864 L9.50214339,18.9245628 C9.63443125,18.8583295 9.78539424,18.7711178 9.90664087,18.6901775 C10.2601245,18.4542033 10.7377163,18.5498507 10.973372,18.903812 C11.2090278,19.2577733 11.1135094,19.7360105 10.7600258,19.9719847 C10.6468667,20.047526 10.5209284,20.1238915 10.3952693,20.1938777 L10.1058559,20.3481662 L10.1058559,20.3481662 L9.88946666,20.4480761 L9.88946666,20.4480761 L9.59153581,20.5718159 L9.00619574,20.739282 C8.93038497,20.7609714 8.85262302,20.7793374 8.76917788,20.7958517 L8.32618057,20.8656735 L8.14619504,20.8837373 L8.14619504,20.8837373 L7.89506454,20.8955229 L7.89506454,20.8955229 L7.64102564,20.8972973 L7.64102564,20.8972973 C7.31034782,20.8972973 7.00754018,20.874913 6.72400877,20.8238652 L6.51484023,20.7801069 C6.14093409,20.719059 5.78014387,20.60464 5.42527979,20.4431201 C5.08494638,20.2882141 4.76666833,20.1103304 4.48195204,19.9107597 C4.17370591,19.6946958 3.88987526,19.4628369 3.66119991,19.2338525 C3.43252457,19.0048682 3.20097851,18.7206539 2.98520621,18.4119913 C2.75598591,18.0840912 2.58528546,17.7849617 2.44378698,17.4449064 L2.39894409,17.333767 L2.39894409,17.333767 L2.32040232,17.115907 C2.30809651,17.0787602 2.2960317,17.0407525 2.28398101,17.0012198 L2.16978089,16.5863277 C2.15577316,16.5316705 2.14109896,16.4734967 2.12553141,16.4111423 C2.03733259,16.0578703 2,15.6765633 2,15.2486486 C2,14.9732497 2.01550533,14.7219662 2.04849635,14.461902 L2.09378755,14.1592513 L2.19491222,13.7933353 L2.19491222,13.7933353 L2.30458175,13.4306027 L2.30458175,13.4306027 L2.37964608,13.2137925 L2.37964608,13.2137925 C2.49532342,12.89525 2.64115543,12.5958903 2.82756954,12.2847803 C3.04243996,11.926179 3.22111434,11.6784494 3.45607171,11.4431745 L3.69686598,11.2049439 L3.69686598,11.2049439 L3.88834766,11.0245722 L3.88834766,11.0245722 L4.06199737,10.8745885 L4.06199737,10.8745885 L4.15197292,10.8024076 C4.39274162,10.5947783 4.6819455,10.4129187 5.0149639,10.2461845 C5.39494736,10.055936 5.85700355,10.2101628 6.04699528,10.5906598 Z M18.9593951,10.2205088 C19.250493,10.3662544 19.5209964,10.5419532 19.8055953,10.7636071 L19.8988579,10.8378613 L19.8988579,10.8378613 L20.0769528,10.9907108 C20.1071137,11.0179029 20.1379854,11.0463652 20.1702756,11.076715 L20.5182873,11.4174988 L20.5182873,11.4174988 L20.5532641,11.4549356 C20.7834108,11.7183159 20.980127,11.9809586 21.1467894,12.2591046 C21.2110554,12.3663594 21.2665897,12.4722153 21.3271752,12.5999744 L21.5598158,13.106876 C21.7181043,13.4238807 21.8198354,13.7686667 21.8869697,14.172017 C21.9451935,14.5218319 21.974359,14.8722907 21.974359,15.222973 C21.974359,15.5540977 21.9520049,15.8573145 21.901026,16.1412291 L21.8573267,16.3506803 C21.7963612,16.7250917 21.6820966,17.0863695 21.5207947,17.4417131 C21.3660977,17.7825064 21.1884542,18.1012146 20.9891528,18.3863156 C20.7733805,18.6949783 20.5418344,18.9791925 20.3131591,19.2081768 C20.0844837,19.4371612 19.8006531,19.6690202 19.4924069,19.885084 C19.1649493,20.1146141 18.8662236,20.2855452 18.5266272,20.4272349 L18.4156377,20.4721384 L18.4156377,20.4721384 L18.1980718,20.5507863 C18.1609751,20.5631088 18.1230186,20.5751899 18.0835393,20.5872569 L17.823085,20.6613063 L17.823085,20.6613063 L17.4942582,20.7459206 L17.4942582,20.7459206 C17.1414629,20.8342386 16.7606705,20.8716216 16.3333333,20.8716216 L16.0584368,20.8693707 L16.0584368,20.8693707 L15.8484566,20.8600922 L15.8484566,20.8600922 L15.6481784,20.8399978 L15.6481784,20.8399978 L15.3613284,20.7998781 C15.234825,20.7794369 15.128356,20.7571667 15.0178547,20.7274102 C14.7882506,20.6899431 14.5613302,20.6227466 14.3380108,20.526909 L14.1097798,20.4281555 L14.1097798,20.4281555 L13.8726143,20.3201454 L13.8726143,20.3201454 L13.803802,20.2865634 C13.6090402,20.2013958 13.4740377,20.1196793 13.2143332,19.946309 C12.8608496,19.7103348 12.7653312,19.2320976 13.000987,18.8781363 C13.2366427,18.524175 13.7142345,18.4285276 14.0677181,18.6645018 L14.2869062,18.8054459 L14.2869062,18.8054459 L14.3855036,18.8590184 L14.3855036,18.8590184 L14.4722156,18.8988872 L14.5867359,18.9540003 L14.5867359,18.9540003 L14.8283038,19.0610975 C14.8632564,19.0762128 14.9016046,19.0927175 14.9440405,19.1109288 C15.0625772,19.1617989 15.1769396,19.1945181 15.2882728,19.2104443 L15.3402888,19.2178852 L15.3908111,19.2323397 C15.434166,19.2447435 15.4786178,19.2553692 15.5307241,19.2654536 L15.7165636,19.2953196 L15.7165636,19.2953196 L15.9028264,19.3185151 L15.9028264,19.3185151 L16.0363568,19.3273736 L16.0363568,19.3273736 L16.3333333,19.3310811 L16.3333333,19.3310811 C16.6444577,19.3310811 16.9048564,19.3055173 17.1211264,19.2513767 L17.3980688,19.1803322 L17.3980688,19.1803322 L17.6087684,19.1211891 L17.6087684,19.1211891 L17.7790932,19.065595 L17.7790932,19.065595 L17.9349112,19.0051975 L17.9349112,19.0051975 C18.1633622,18.909881 18.3678142,18.7928934 18.6101572,18.6230241 C18.8496966,18.4551199 19.0656994,18.2786689 19.2253025,18.1188502 C19.3849055,17.9590315 19.5611184,17.7427367 19.728796,17.5028736 C19.8708144,17.2997159 20.0028191,17.062888 20.1202309,16.8042329 C20.2308449,16.5605533 20.3053701,16.3217504 20.3422782,16.0815235 L20.3476818,16.0463528 L20.3563006,16.0118307 C20.4103682,15.7952684 20.4358974,15.5345178 20.4358974,15.222973 C20.4358974,14.9574391 20.4137809,14.6916816 20.3694406,14.4252803 C20.3344602,14.2151147 20.2893913,14.0440453 20.2305473,13.8994789 L19.9426315,13.2718398 L19.9426315,13.2718398 L19.8641862,13.1158109 C19.8519017,13.0932913 19.8398014,13.0721201 19.8275695,13.0517062 C19.7158264,12.8652159 19.5781636,12.6802391 19.4118262,12.4882072 L19.1296983,12.2118559 L19.1296983,12.2118559 L18.9905599,12.0857377 L18.9905599,12.0857377 L18.8610713,11.9796362 L18.8610713,11.9796362 C18.6519314,11.816752 18.4651247,11.6954163 18.2713742,11.5984101 C17.8913907,11.4081617 17.737372,10.9454811 17.9273637,10.5649841 C18.1173554,10.1844872 18.5794116,10.0302603 18.9593951,10.2205088 Z M16.3076923,9.6 C16.6153846,9.6 16.9230769,9.62567568 17.2307692,9.67702703 C16.542735,11.4240428 15.0304932,12.7701882 13.1453956,13.173109 L12.8974359,13.2202703 L12.9994767,13.4889292 C13.1878598,14.03508 13.2820513,14.6324324 13.2820513,15.2486486 C13.2820513,16.6351351 12.7948718,17.8932432 11.974359,18.8689189 C11.1538462,17.8932432 10.6666667,16.6351351 10.6666667,15.2486486 C10.6666667,14.6324324 10.7796965,14.0539437 10.9573148,13.4970136 L11.0512821,13.2202703 L10.8033224,13.1732372 C8.91822472,12.7722386 7.40598291,11.4486486 6.71794872,9.67702703 C7.02564103,9.62567568 7.33333333,9.6 7.64102564,9.6 C9.2928475,9.6 10.7835784,10.314367 11.8079932,11.4374635 L11.974359,11.6283784 L12.1407247,11.4374635 C13.1651396,10.314367 14.6558704,9.6 16.3076923,9.6 Z M11.974359,2 C12.7598104,2 13.5320481,2.15465626 14.1901048,2.45417717 C14.8508559,2.75492443 15.4615789,3.17017328 15.9541847,3.66344478 C16.4677645,4.17771862 16.8771195,4.77394863 17.166977,5.44152178 C17.4648696,6.12760061 17.6153846,6.87365699 17.6153846,7.64864865 L17.6116112,7.9350093 L17.6116112,7.9350093 C17.6071584,8.05093652 17.5979828,8.15915116 17.5820124,8.27109483 C17.5219318,8.69222778 17.1322918,8.98485268 16.7117272,8.92469083 C16.3262096,8.86954246 16.0485288,8.5370985 16.0512032,8.15769455 L16.0687206,7.96789621 L16.0687206,7.96789621 L16.0764208,7.78658507 L16.0764208,7.78658507 L16.0769231,7.64864865 C16.0769231,7.08208625 15.9686089,6.54520663 15.7561,6.05577552 C15.5441653,5.56766718 15.245056,5.13201111 14.8663281,4.75277144 C14.5078491,4.39380801 14.0505544,4.08287963 13.5534849,3.85663364 C13.1034831,3.65181092 12.547882,3.54054054 11.974359,3.54054054 C11.4085612,3.54054054 10.8724061,3.64900107 10.3836355,3.86179721 C9.89618585,4.07401822 9.4611177,4.37353177 9.08238983,4.75277144 C8.72391083,5.11173487 8.41340206,5.56964758 8.19261799,6.05577552 C7.98010903,6.54520663 7.87179487,7.08208625 7.87179487,7.64864865 L7.87443167,7.87580151 L7.87443167,7.87580151 C7.87694009,7.94110845 7.88167392,7.99693778 7.88970474,8.0532295 C7.9497854,8.47436245 7.65755541,8.86452898 7.23699079,8.92469083 C6.81642616,8.98485268 6.42678618,8.69222778 6.36670552,8.27109483 L6.34758703,8.1045459 L6.34758703,8.1045459 L6.33517049,7.87510984 L6.33517049,7.87510984 L6.33333333,7.64864865 L6.33333333,7.64864865 C6.33333333,6.87365699 6.4838484,6.12760061 6.78689758,5.42990854 C7.08723897,4.76826458 7.50192743,4.15671628 7.99453325,3.66344478 C8.50811306,3.14917093 9.10353844,2.7392628 9.77021068,2.44901361 C10.4553636,2.15071846 11.2004132,2 11.974359,2 Z" id="形状" fill="#000000" fill-rule="nonzero"></path>
    </g>
</svg>