<?xml version="1.0" encoding="UTF-8"?>
<svg width="24px" height="24px" viewBox="0 0 24 24" version="1.1" xmlns="http://www.w3.org/2000/svg" xmlns:xlink="http://www.w3.org/1999/xlink">
    <title>ic_edit_photo_adjust_hue</title>
    <g id="ic_edit_photo_adjust_hue" stroke="none" stroke-width="1" fill="none" fill-rule="evenodd">
        <path d="M12,1.32843093 C13.6568542,1.32843093 15,2.67157668 15,4.32843093 L15,13.5405968 C16.2144467,14.4528031 17,15.9051452 17,17.540963 C17,20.3023867 14.7614237,22.540963 12,22.540963 C9.23857625,22.540963 7,20.3023867 7,17.540963 C7,15.9051452 7.7855533,14.4528031 9,13.5405968 L9,4.32843093 C9,2.67157668 10.3431458,1.32843093 12,1.32843093 Z M12,2.82843093 C11.1715729,2.82843093 10.5,3.5000038 10.5,4.32843093 L10.5,14.2899198 L9.90086649,14.7399464 C9.02430571,15.3983568 8.5,16.4246829 8.5,17.540963 C8.5,19.4739596 10.0670034,21.040963 12,21.040963 C13.9329966,21.040963 15.5,19.4739596 15.5,17.540963 C15.5,16.4246829 14.9756943,15.3983568 14.0991335,14.7399464 L13.5,14.2899198 L13.5,12.0144309 L12.4535392,12.0151102 C12.0393256,12.0151102 11.7035392,11.6793238 11.7035392,11.2651102 C11.7035392,10.8508967 12.0393256,10.5151102 12.4535392,10.5151102 L13.5,10.5144309 L13.5,8.01843093 L12.4535392,8.01882778 C12.0393256,8.01882778 11.7035392,7.68304134 11.7035392,7.26882778 C11.7035392,6.85461422 12.0393256,6.51882778 12.4535392,6.51882778 L13.5,6.51843093 L13.5,4.32843093 C13.5,3.5000038 12.8284271,2.82843093 12,2.82843093 Z M12,15.5711762 C12.4935,15.5711762 12.94525,15.7499262 13.294,16.0461762 C13.726,16.4129262 14,16.9601762 14,17.5711762 C14,18.6756762 13.1045,19.5711762 12,19.5711762 C10.8955,19.5711762 10,18.6756762 10,17.5711762 C10,16.9601762 10.274,16.4131762 10.70575,16.0461762 C11.05475,15.7499262 11.50625,15.5711762 12,15.5711762 Z" id="形状" fill="#000000" fill-rule="nonzero"></path>
    </g>
</svg>