<?xml version="1.0" encoding="UTF-8"?>
<svg width="24px" height="24px" viewBox="0 0 24 24" version="1.1" xmlns="http://www.w3.org/2000/svg" xmlns:xlink="http://www.w3.org/1999/xlink">
    <title>ic_edit_photo_crop_landfull</title>
    <g id="ic_edit_photo_crop_landfull" stroke="none" stroke-width="1" fill="none" fill-rule="evenodd">
        <path d="M24,18.2156637 C24,19.0440908 23.3284271,19.7156637 22.5,19.7156637 L1.5,19.7156637 C0.671572875,19.7156637 -6.03961325e-14,19.0440908 -6.03961325e-14,18.2156637 L-6.03961325e-14,5.78433632 C-6.03961325e-14,4.95590919 0.671572875,4.28433632 1.5,4.28433632 L22.5,4.28433632 C23.3284271,4.28433632 24,4.95590919 24,5.78433632 L24,18.2156637 Z M22.5,18.2156637 L22.5,5.78433632 L1.5,5.78433632 L1.5,18.2156637 L22.5,18.2156637 Z M16.7827732,12.1497097 C16.7684477,12.1688653 16.7514472,12.1858658 16.7322916,12.2001913 L14.3997246,13.9446062 C14.2891538,14.0272968 14.1324844,14.0046954 14.0497938,13.8941246 C14.0174683,13.8509002 14,13.7983748 14,13.7443999 L14.000582,12.4995703 L10.498,12.4993363 L10.4977182,13.7443999 C10.4977182,13.7803832 10.4899545,13.8157222 10.4752008,13.8480906 L10.4479244,13.8941246 C10.3790155,13.9862669 10.2587325,14.0173194 10.1565646,13.9772574 L10.0979935,13.9446062 L7.76542653,12.2001913 C7.74627096,12.1858658 7.72927046,12.1688653 7.71494493,12.1497097 C7.64603607,12.0575674 7.65024667,11.9334121 7.71755209,11.8467332 L7.76542653,11.7997789 L10.0979935,10.055364 C10.141218,10.0230386 10.1937433,10.0055703 10.2477182,10.0055703 C10.3660649,10.0055703 10.465205,10.0878037 10.4911155,10.1982475 L10.4977182,10.2555703 L10.498,11.4993363 L14.000582,11.4995703 L14,10.2555703 C14,10.1174991 14.1119288,10.0055703 14.25,10.0055703 C14.3039749,10.0055703 14.3565002,10.0230386 14.3997246,10.055364 L16.7322916,11.7997789 C16.8428625,11.8824695 16.8654639,12.0391389 16.7827732,12.1497097 Z" id="形状" fill="#000000"></path>
    </g>
</svg>