<?xml version="1.0" encoding="UTF-8"?>
<svg width="16px" height="16px" viewBox="0 0 16 16" version="1.1" xmlns="http://www.w3.org/2000/svg" xmlns:xlink="http://www.w3.org/1999/xlink">
    <title>ic_edit_photo_label_enlarge</title>
    <g id="ic_edit_photo_label_enlarge" stroke="none" stroke-width="1" fill="none" fill-rule="evenodd">
        <path d="M6.95464656,2.82590019 C7.36886012,2.82590019 7.70464656,3.16168663 7.70464656,3.57590019 C7.70464656,3.95559596 7.42249268,4.26939116 7.05641712,4.31905358 L6.95464656,4.32590019 L5.3688242,4.32490019 L11.6858242,10.6099002 L11.685962,9.06136765 C11.685962,8.68167188 11.9681158,8.36787669 12.3341914,8.31821427 L12.435962,8.31136765 C12.8156577,8.31136765 13.1294529,8.59352153 13.1791153,8.95959709 L13.185962,9.06136765 L13.185962,12.42919 C13.185962,12.8088858 12.9038081,13.122681 12.5377325,13.1723434 L12.435962,13.17919 L9.06813959,13.17919 C8.65392603,13.17919 8.31813959,12.8434036 8.31813959,12.42919 C8.31813959,12.0494942 8.60029347,11.7356991 8.96636903,11.6860366 L9.06813959,11.67919 L10.6338242,11.6789002 L4.3358242,5.41290019 L4.3368242,6.94372256 C4.3368242,7.32341832 4.05467031,7.63721352 3.68859475,7.68687594 L3.5868242,7.69372256 C3.20712843,7.69372256 2.89333323,7.41156868 2.84367081,7.04549311 L2.8368242,6.94372256 L2.8368242,3.57590019 C2.8368242,3.19620443 3.11897808,2.88240923 3.48505364,2.83274681 L3.5868242,2.82590019 L6.95464656,2.82590019 Z" id="路径" fill="#191919" fill-rule="nonzero"></path>
    </g>
</svg>