<?xml version="1.0" encoding="UTF-8"?>
<svg width="24px" height="24px" viewBox="0 0 24 24" version="1.1" xmlns="http://www.w3.org/2000/svg" xmlns:xlink="http://www.w3.org/1999/xlink">
    <title>ic_edit_photo_more_label</title>
    <g id="ic_edit_photo_more_label" stroke="none" stroke-width="1" fill="none" fill-rule="evenodd">
        <path d="M9.41953827,3.0322692 C9.81655522,3.0322692 10.1973793,3.18966511 10.4785487,3.46996184 L20.5622535,13.5223687 C21.1489483,14.1072453 21.1504244,15.0569917 20.5655504,15.6436891 L15.648133,20.5611065 C15.0631098,21.1461297 14.1148696,21.1470035 13.5287693,20.5630594 L3.43827326,10.5096914 C3.15577387,10.2282278 2.99697868,9.84585926 2.99697868,9.44707649 L2.99697868,4.5322692 C2.99697868,3.70384207 3.66855156,3.0322692 4.49697868,3.0322692 L9.41953827,3.0322692 Z M9.41953827,4.5322692 L4.49697868,4.5322692 L4.49697868,9.44707649 L14.5874729,19.5004463 L19.5032418,14.5846774 L9.41953827,4.5322692 Z M7.48273605,6.71703471 C7.92816523,6.71703471 8.28925656,7.07812604 8.28925656,7.52355522 C8.28925656,7.9689844 7.92816523,8.33007572 7.48273605,8.33007572 C7.03730688,8.33007572 6.67621555,7.9689844 6.67621555,7.52355522 C6.67621555,7.07812604 7.03730688,6.71703471 7.48273605,6.71703471 Z" id="形状" fill="#000000"></path>
    </g>
</svg>