<?xml version="1.0" encoding="UTF-8"?>
<svg width="24px" height="24px" viewBox="0 0 24 24" version="1.1" xmlns="http://www.w3.org/2000/svg" xmlns:xlink="http://www.w3.org/1999/xlink">
    <title>ic_edit_public_redo</title>
    <defs>
        <path d="M7.52113125,7.5009057 C4.75913131,7.5009057 2.52008796,9.73994904 2.52008796,12.501949 C2.52008796,15.1912647 4.64283751,17.3847857 7.30419637,17.4983718 L7.52113125,17.5029923 L19.2696068,17.5029923 C19.6838204,17.5029923 20.0196068,17.8387787 20.0196068,18.2529923 C20.0196068,18.632688 19.7374529,18.9464832 19.3713774,18.9961457 L19.2696068,19.0029923 L7.52113125,19.0029923 C3.93070418,19.0029923 1.02008796,16.092376 1.02008796,12.501949 C1.02008796,8.98957468 3.80553118,6.1277755 7.28795969,6.00500936 L7.52113125,6.0009057 L18.587088,5.99991185 L18.5871207,3.99191185 C18.5871207,3.71576947 18.8109783,3.49191185 19.0871207,3.49191185 C19.2084983,3.49191185 19.3257316,3.53606391 19.416954,3.61613265 L22.8449957,6.62503319 C23.0525328,6.80719508 23.0731035,7.12310855 22.8909416,7.33064567 C22.7960078,7.43880377 22.6590742,7.5008124 22.5151624,7.5008124 L7.52113125,7.5009057 Z" id="path-1"></path>
    </defs>
    <g id="ic_edit_public_redo" stroke="none" stroke-width="1" fill="none" fill-rule="evenodd">
        <mask id="mask-2" fill="white">
            <use xlink:href="#path-1"></use>
        </mask>
        <use id="路径" fill="#000000" xlink:href="#path-1"></use>
    </g>
</svg>