<?xml version="1.0" encoding="UTF-8"?>
<svg width="24px" height="24px" viewBox="0 0 24 24" version="1.1" xmlns="http://www.w3.org/2000/svg" xmlns:xlink="http://www.w3.org/1999/xlink">
    <title>ic_edit_photo_doodle_style_arrow</title>
    <g id="ic_edit_photo_doodle_style_arrow" stroke="none" stroke-width="1" fill="none" fill-rule="evenodd">
        <path d="M21.974748,12.0001186 L21.9772055,12.036816 L21.9772055,12.036816 L21.9704783,12.1277379 L21.9384548,12.2347199 L21.9384548,12.2347199 L21.8933848,12.3148971 L21.8933848,12.3148971 L21.8255426,12.393651 L19.4534366,14.4848996 C19.3621105,14.5681606 19.2470633,14.6099096 19.1324906,14.6099096 C19.0041597,14.6099096 18.8765404,14.5581977 18.7828422,14.4566716 C18.7198628,14.3879991 18.6815681,14.3055833 18.6660568,14.2202319 L18.6580694,14.1343024 L18.6574309,12.7490904 L2.6574309,12.75 C2.24321734,12.75 1.9074309,12.4142136 1.9074309,12 C1.9074309,11.5857864 2.24321734,11.25 2.6574309,11.25 L18.6574309,11.2490904 L18.6592555,9.86617204 C18.6588997,9.77970878 18.6813605,9.69297865 18.7280391,9.61628921 L18.7828422,9.54332841 C18.8765404,9.44203949 19.0041597,9.39009037 19.1324906,9.39009037 C19.2184202,9.39009037 19.3046166,9.41357422 19.3807723,9.46054191 L19.4531994,9.51533756 L21.8535334,11.6348143 L21.9038221,11.7019449 L21.9382176,11.7655173 L21.970241,11.8724993 L21.970241,11.8724993 L21.9753883,11.9089562 L21.9774309,11.9730904 L21.974748,12.0001186 Z" id="路径" fill="#000000" fill-rule="nonzero"></path>
    </g>
</svg>