<?xml version="1.0" encoding="UTF-8"?>
<svg width="24px" height="24px" viewBox="0 0 24 24" version="1.1" xmlns="http://www.w3.org/2000/svg" xmlns:xlink="http://www.w3.org/1999/xlink">
    <title>ic_edit_photo_toolbar_crop</title>
    <g id="ic_edit_photo_toolbar_crop" stroke="none" stroke-width="1" fill="none" fill-rule="evenodd">
        <path d="M3.7739809,14.357944 C4.18819447,14.357944 4.5239809,14.6937304 4.5239809,15.107944 L4.5239809,16.3731168 C4.5239809,17.984892 5.74720478,19.3109679 7.31595408,19.4736462 L7.31641512,18.6280908 C7.31641512,18.5702382 7.33647951,18.5141762 7.37318801,18.4694614 C7.44619517,18.3805311 7.56775992,18.3549525 7.66801069,18.399596 L7.72504451,18.4348637 L10.2547178,20.5093835 C10.3105533,20.5418565 10.3526647,20.5953335 10.3702307,20.658993 L10.3792141,20.7256458 L10.3792141,20.7411838 C10.3792141,20.8595305 10.2969807,20.9586706 10.1865368,20.9845811 L10.1292141,20.9911838 L7.64128216,20.990418 C5.09121709,20.990418 3.0239809,18.9231819 3.0239809,16.3731168 L3.0239809,15.107944 C3.0239809,14.6937304 3.35976734,14.357944 3.7739809,14.357944 Z M7.88483059,4.04742602 C8.29904415,4.04742602 8.6348347,4.38320834 8.6348347,4.79742191 L8.63489259,15.3625962 L14.6144273,15.377426 L14.6153609,15.3801052 L16.8824273,15.379426 L16.8834273,15.382426 L19.228559,15.3892646 C19.6427712,15.3903074 19.9777113,15.7269381 19.9766734,16.1411503 C19.9756258,16.5553626 19.6389952,16.8903026 19.2247829,16.8892623 L16.8834273,16.882426 L16.8835049,19.2055058 C16.8835049,19.6197193 16.5477184,19.9555058 16.1335049,19.9555058 C15.7192913,19.9555058 15.3835049,19.6197193 15.3835049,19.2055058 L15.3834273,16.879426 L8.63111651,16.8625915 C7.80416948,16.8605097 7.1348347,16.1895541 7.1348347,15.3626044 L7.13442733,8.68242602 L4.79942733,8.68272071 C4.38521377,8.68272071 4.04942733,8.34693427 4.04942733,7.93272071 C4.04942733,7.51850715 4.38521377,7.18272071 4.79942733,7.18272071 L7.13442733,7.18242602 L7.1348347,4.79743012 C7.1348347,4.38321656 7.47061703,4.04742602 7.88483059,4.04742602 Z M15.3835049,7.18272071 C16.211932,7.18272071 16.8835049,7.85429358 16.8835049,8.68272071 L16.8824273,14.348426 L15.3824273,14.348426 L15.3835049,8.68272071 L9.66342733,8.68242602 L9.66342733,7.18242602 L15.3835049,7.18272071 Z M16.6911934,2.72894783 C19.2412585,2.72894783 21.3084947,4.79618402 21.3084947,7.34624909 L21.3084947,8.61142189 C21.3084947,9.02563545 20.9727082,9.36142189 20.5584947,9.36142189 C20.1442811,9.36142189 19.8084947,9.02563545 19.8084947,8.61142189 L19.8084947,7.34624909 C19.8084947,5.73447389 18.5852708,4.40839793 17.0165215,4.24571967 L17.0160605,5.09127509 C17.0160605,5.14912771 16.9959961,5.2051897 16.9592876,5.24990448 C16.8862804,5.3388348 16.7647157,5.36441342 16.6644649,5.31976992 L16.6074311,5.28450221 L14.0808169,3.21173276 C14.0237178,3.1795947 13.9805174,3.12567386 13.9624859,3.06124037 L13.9532614,2.99372008 L13.9532614,2.97818207 C13.9532614,2.85983534 14.0354949,2.76069525 14.1459387,2.73478475 L14.1869809,2.73018207 L14.1870328,2.72847509 L16.6911934,2.72894783 Z" id="形状" fill="#000000" fill-rule="nonzero"></path>
    </g>
</svg>