<?xml version="1.0" encoding="UTF-8"?>
<svg width="24px" height="24px" viewBox="0 0 24 24" version="1.1" xmlns="http://www.w3.org/2000/svg" xmlns:xlink="http://www.w3.org/1999/xlink">
    <title>ic_edit_photo_doodle_stroke_1</title>
    <g id="ic_edit_photo_doodle_stroke_1" stroke="none" stroke-width="1" fill="none" fill-rule="evenodd">
        <path d="M12,3 C16.9705627,3 21,7.02943725 21,12 C21,16.9705627 16.9705627,21 12,21 C7.02943725,21 3,16.9705627 3,12 C3,7.02943725 7.02943725,3 12,3 Z M12,4.5 C7.85786438,4.5 4.5,7.85786438 4.5,12 C4.5,16.1421356 7.85786438,19.5 12,19.5 C16.1421356,19.5 19.5,16.1421356 19.5,12 C19.5,7.85786438 16.1421356,4.5 12,4.5 Z M12,11 C12.5522847,11 13,11.4477153 13,12 C13,12.5522847 12.5522847,13 12,13 C11.4477153,13 11,12.5522847 11,12 C11,11.4477153 11.4477153,11 12,11 Z" id="形状" fill="#000000" fill-rule="nonzero"></path>
    </g>
</svg>