<?xml version="1.0" encoding="UTF-8"?>
<svg width="24px" height="24px" viewBox="0 0 24 24" version="1.1" xmlns="http://www.w3.org/2000/svg" xmlns:xlink="http://www.w3.org/1999/xlink">
    <title>ic_edit_photo_doodle_eraser</title>
    <g id="ic_edit_photo_doodle_eraser" stroke="none" stroke-width="1" fill="none" fill-rule="evenodd">
        <path d="M20.2535466,19.509743 C20.6677601,19.509743 21.0035466,19.8455294 21.0035466,20.259743 C21.0035466,20.6739566 20.6677601,21.009743 20.2535466,21.009743 L15.7312847,21.009743 C15.3170711,21.009743 14.9812847,20.6739566 14.9812847,20.259743 C14.9812847,19.8455294 15.3170711,19.509743 15.7312847,19.509743 L20.2535466,19.509743 Z M15.103924,3.41002694 L20.620615,8.92671792 C21.2064014,9.51250436 21.2064014,10.4622518 20.620615,11.0480383 L11.099907,20.5687462 C10.5141206,21.1545326 9.56437314,21.1545326 8.9785867,20.5687462 L3.46189572,15.0520552 C2.87610929,14.4662688 2.87610929,13.5165213 3.46189572,12.9307349 L12.9826037,3.41002694 C13.5683901,2.8242405 14.5181376,2.8242405 15.103924,3.41002694 Z M6.60155589,11.9116871 L4.52255589,13.9913951 L10.0392469,19.508086 L12.1185559,17.4286871 L6.60155589,11.9116871 Z M14.0432638,4.47068711 L7.66155589,10.8506871 L13.1785559,16.3676871 L19.5599548,9.98737809 L14.0432638,4.47068711 Z" id="形状" fill="#000000"></path>
    </g>
</svg>