<?xml version="1.0" encoding="UTF-8"?>
<svg width="24px" height="24px" viewBox="0 0 24 24" version="1.1" xmlns="http://www.w3.org/2000/svg" xmlns:xlink="http://www.w3.org/1999/xlink">
    <title>ic_edit_photo_adjust_bw</title>
    <g id="ic_edit_photo_adjust_bw" stroke="none" stroke-width="1" fill="none" fill-rule="evenodd">
        <path d="M5.65852756,5.65852756 C9.16082608,2.15622904 14.8391739,2.15622904 18.3414724,5.65852756 C21.843771,9.16082608 21.843771,14.8391739 18.3414724,18.3414724 C14.8391739,21.843771 9.16082608,21.843771 5.65852756,18.3414724 C2.15622904,14.8391739 2.15622904,9.16082608 5.65852756,5.65852756 Z M17.2808123,6.71918773 C14.3643002,3.80267565 9.63569981,3.80267565 6.71918773,6.71918773 C3.80267565,9.63569981 3.80267565,14.3643002 6.71918773,17.2808123 C9.63569981,20.1973244 14.3643002,20.1973244 17.2808123,17.2808123 C20.1973244,14.3643002 20.1973244,9.63569981 17.2808123,6.71918773 Z M12,6.0269037 L12,17.9730963 C10.4713514,17.9730963 8.9427027,17.3899365 7.7763831,16.2236169 C5.4437439,13.8909777 5.4437439,10.1090223 7.7763831,7.7763831 C8.9427027,6.6100635 10.4713514,6.0269037 12,6.0269037 Z" id="形状" fill="#000000" fill-rule="nonzero"></path>
    </g>
</svg>