<?xml version="1.0" encoding="UTF-8"?>
<svg width="24px" height="24px" viewBox="0 0 24 24" version="1.1" xmlns="http://www.w3.org/2000/svg" xmlns:xlink="http://www.w3.org/1999/xlink">
    <title>ic_edit_photo_crop_mirror</title>
    <g id="ic_edit_photo_crop_mirror" stroke="none" stroke-width="1" fill="none" fill-rule="evenodd">
        <path d="M12,2.75 C12.3796958,2.75 12.693491,3.03215388 12.7431534,3.39822944 L12.75,3.5 L12.75,20.5 C12.75,20.9142136 12.4142136,21.25 12,21.25 C11.6203042,21.25 11.306509,20.9678461 11.2568466,20.6017706 L11.25,20.5 L11.25,3.5 C11.25,3.08578644 11.5857864,2.75 12,2.75 Z M21.042668,7.48527272 L21.0290673,16.5017583 C21.028046,17.1788421 20.2012574,17.508044 19.7351121,17.0169717 L15.4557093,12.5087289 C15.1806678,12.2189797 15.1810279,11.7644914 15.4565281,11.4751784 L19.7495306,6.96693561 C20.2168137,6.47622422 21.0436891,6.80766662 21.042668,7.48527272 Z M2.958967,7.48527272 C2.95799969,6.8433301 3.70007517,6.5120718 4.17550765,6.89621777 L4.25210435,6.96693561 L8.54510693,11.4751784 C8.79305709,11.7355601 8.81814375,12.1297338 8.62017638,12.4171919 L8.54592573,12.5087289 L4.2665229,17.0169717 C3.82491154,17.4821981 3.05962032,17.2112227 2.97941831,16.6057064 L2.97256769,16.5017583 L2.958967,7.48527272 Z M19.5398342,9.36229501 L17.0345344,11.9932041 L19.5318977,14.6241132 L19.5398342,9.36229501 Z M4.4618008,9.36229501 L4.46973731,14.6241132 L6.96710056,11.9932041 L4.4618008,9.36229501 Z" id="形状" fill="#000000" fill-rule="nonzero"></path>
    </g>
</svg>