<?xml version="1.0" encoding="UTF-8"?>
<svg width="16px" height="16px" viewBox="0 0 16 16" version="1.1" xmlns="http://www.w3.org/2000/svg" xmlns:xlink="http://www.w3.org/1999/xlink">
    <title>ic_edit_photo_label_delete</title>
    <g id="ic_edit_photo_label_delete" stroke="none" stroke-width="1" fill="none" fill-rule="evenodd">
        <path d="M2.77241955,2.77241955 C3.03868611,2.50615299 3.4553498,2.48194694 3.74896129,2.6998014 L3.83307972,2.77241955 L7.97274964,6.91174964 L12.1130016,2.77241955 C12.4058948,2.47952633 12.8807685,2.47952633 13.1736617,2.77241955 C13.4665549,3.06531277 13.4665549,3.5401865 13.1736617,3.83307972 L9.03274964,7.97274964 L13.1736617,12.1130016 C13.4399283,12.3792681 13.4641343,12.7959318 13.2462799,13.0895433 L13.1736617,13.1736617 C12.9073952,13.4399283 12.4907315,13.4641343 12.19712,13.2462799 L12.1130016,13.1736617 L7.97274964,9.03274964 L3.83307972,13.1736617 C3.5401865,13.4665549 3.06531277,13.4665549 2.77241955,13.1736617 C2.47952633,12.8807685 2.47952633,12.4058948 2.77241955,12.1130016 L6.91174964,7.97274964 L2.77241955,3.83307972 C2.50615299,3.56681316 2.48194694,3.15014948 2.6998014,2.85653798 L2.77241955,2.77241955 Z" id="路径" fill="#000000" fill-rule="nonzero"></path>
    </g>
</svg>