<?xml version="1.0" encoding="UTF-8"?>
<svg width="24px" height="24px" viewBox="0 0 24 24" version="1.1" xmlns="http://www.w3.org/2000/svg" xmlns:xlink="http://www.w3.org/1999/xlink">
    <title>ic_edit_public_undo</title>
    <defs>
        <path d="M16.4846934,7.5009057 C19.2466933,7.5009057 21.4857367,9.73994904 21.4857367,12.501949 C21.4857367,15.1912647 19.3629871,17.3847857 16.7016282,17.4983718 L16.4846934,17.5029923 L4.76343695,17.5029923 C4.34922339,17.5029923 4.01343695,17.8387787 4.01343695,18.2529923 C4.01343695,18.632688 4.29559084,18.9464832 4.6616664,18.9961457 L4.76343695,19.0029923 L16.4846934,19.0029923 C20.0751204,19.0029923 22.9857367,16.092376 22.9857367,12.501949 C22.9857367,8.98957468 20.2002934,6.1277755 16.7178649,6.00500936 L16.4846934,6.0009057 L5.43973666,5.99991185 L5.4394331,3.99191185 C5.4394331,3.71576947 5.21557547,3.49191185 4.9394331,3.49191185 C4.81805551,3.49191185 4.70082217,3.53606391 4.60959982,3.61613265 L1.18155808,6.62503319 C0.974020957,6.80719508 0.953450266,7.12310855 1.13561216,7.33064567 C1.23054594,7.43880377 1.36747959,7.5008124 1.51138482,7.5008124 L16.4846934,7.5009057 Z" id="path-1"></path>
    </defs>
    <g id="ic_edit_public_undo" stroke="none" stroke-width="1" fill="none" fill-rule="evenodd">
        <mask id="mask-2" fill="white">
            <use xlink:href="#path-1"></use>
        </mask>
        <use id="路径" fill="#000000" fill-rule="nonzero" xlink:href="#path-1"></use>
    </g>
</svg>