<?xml version="1.0" encoding="UTF-8"?>
<svg width="24px" height="24px" viewBox="0 0 24 24" version="1.1" xmlns="http://www.w3.org/2000/svg" xmlns:xlink="http://www.w3.org/1999/xlink">
    <title>ic_edit_photo_adjust_saturation</title>
    <g id="ic_edit_photo_adjust_saturation" stroke="none" stroke-width="1" fill="none" fill-rule="evenodd">
        <path d="M11.9887651,2.02247404 C12.2790953,2.02247404 12.5559046,2.10961843 12.8063678,2.2797826 L12.9293445,2.37176391 L13.0093384,2.4447163 C16.9975598,6.10329332 20.0793013,10.2369083 20.0793013,13.9896853 C20.0793013,18.320341 16.5903811,21.8423626 12.2410808,21.9737274 L11.8855452,21.977526 C7.4361966,21.977526 3.89914634,18.420264 3.89914634,13.9896853 C3.89914634,10.3368184 6.81898333,6.32322931 10.6530565,2.73741133 L11.0475785,2.37274651 L11.0838412,2.34185755 C11.3393024,2.13788977 11.654646,2.02247404 11.9887651,2.02247404 Z M11.9892137,3.54441187 L11.9811138,3.55185097 C8.310071,6.920375 5.39914634,10.8258786 5.39914634,13.9896853 C5.39914634,17.515395 8.14322873,20.3518037 11.6506107,20.4734597 L11.9892238,20.477526 L12.2257339,20.4734273 C15.757936,20.3508129 18.5793013,17.4926056 18.5793013,13.9896853 C18.5793013,10.8248145 15.6664746,6.91776901 11.9892137,3.54441187 Z M15.5178075,10.4489671 C17.4276574,12.3588169 17.4276574,15.4552954 15.5178075,17.3651452 C13.6658319,19.2171209 10.6980549,19.2732413 8.77845496,17.5335067 L8.60162934,17.3651452 L15.5178075,10.4489671 Z" id="形状" fill="#000000" fill-rule="nonzero"></path>
    </g>
</svg>