<?xml version="1.0" encoding="UTF-8"?>
<svg width="24px" height="24px" viewBox="0 0 24 24" version="1.1" xmlns="http://www.w3.org/2000/svg" xmlns:xlink="http://www.w3.org/1999/xlink">
    <title>ic_edit_photo_adjust_contrast</title>
    <g id="ic_edit_photo_adjust_contrast" stroke="none" stroke-width="1" fill="none" fill-rule="evenodd">
        <path d="M12,3.03180367 C16.9529981,3.03180367 20.9681963,7.04700193 20.9681963,12 C20.9681963,14.2065048 20.1713393,16.2268936 18.8497034,17.7890882 L20.4151941,19.354534 C20.7080874,19.6474272 20.7080874,20.1223009 20.4151941,20.4151941 C20.1489276,20.6814607 19.7322639,20.7056668 19.4386524,20.4878123 L19.354534,20.4151941 L17.7890882,18.8497034 C16.2268936,20.1713393 14.2065048,20.9681963 12,20.9681963 C7.04700193,20.9681963 3.03180367,16.9529981 3.03180367,12 C3.03180367,9.79349522 3.82866072,7.77310638 5.15029655,6.21091176 L3.61774586,4.67840603 C3.32485264,4.38551281 3.32485264,3.91063908 3.61774586,3.61774586 C3.88401242,3.3514793 4.30067611,3.32727325 4.5942876,3.54512771 L4.67840603,3.61774586 L6.21091176,5.15029655 C7.77310638,3.82866072 9.79349522,3.03180367 12,3.03180367 Z M6.21565504,7.27573208 C5.16318142,8.56283396 4.53180367,10.2076839 4.53180367,12 C4.53180367,16.1245709 7.87542906,19.4681963 12,19.4681963 C13.791922,19.4681963 15.4364427,18.8370962 16.7234188,17.7850392 L15.4947845,16.5561727 C14.5505622,17.229219 13.395127,17.6251153 12.1472253,17.6251153 C8.95849224,17.6251153 6.37351337,15.0401364 6.37351337,11.8514034 C6.37351337,10.6032946 6.76954107,9.44768305 7.44279094,8.50337422 L6.21565504,7.27573208 Z M12,4.53180367 C10.2076839,4.53180367 8.56283396,5.16318142 7.27573208,6.21565504 L17.7850392,16.7234188 C18.8370962,15.4364427 19.4681963,13.791922 19.4681963,12 C19.4681963,7.87542906 16.1245709,4.53180367 12,4.53180367 Z" id="形状" fill="#000000" fill-rule="nonzero"></path>
    </g>
</svg>