<?xml version="1.0" encoding="UTF-8"?>
<svg width="24px" height="24px" viewBox="0 0 24 24" version="1.1" xmlns="http://www.w3.org/2000/svg" xmlns:xlink="http://www.w3.org/1999/xlink">
    <title>ic_edit_photo_crop_rotate</title>
    <g id="ic_edit_photo_crop_rotate" stroke="none" stroke-width="1" fill="none" fill-rule="evenodd">
        <path d="M10.5032027,9 C9.67477562,9 9.00320275,9.67157288 9.00320275,10.5 L9.00320275,19.5 C9.00320275,20.3284271 9.67477562,21 10.5032027,21 L19.5032027,21 C20.3316299,21 21.0032027,20.3284271 21.0032027,19.5 L21.0032027,10.5 C21.0032027,9.67157288 20.3316299,9 19.5032027,9 L10.5032027,9 Z M10.5032027,10.5 L19.5032027,10.5 L19.5032027,19.5 L10.5032027,19.5 L10.5032027,10.5 Z M9.84154148,3.00936763 C6.06129363,3.00936763 2.99679725,6.073864 2.99679725,9.85411186 C2.99679725,10.6954123 3.1489781,11.5168891 3.44228938,12.2877606 C3.45748728,12.3277033 3.47572909,12.3655945 3.49665008,12.4012707 C3.54046887,12.4576608 3.6035979,12.5013732 3.67950829,12.5120417 C3.78491007,12.526855 3.88418464,12.4736374 3.93294471,12.3858372 L5.90990158,9.38829215 C5.98595247,9.27305364 5.95418462,9.11798294 5.83894611,9.04193205 C5.79808365,9.01496515 5.75020249,9.00058984 5.70124379,9.00058984 L4.56450003,9.00108238 C4.97292469,6.45471979 7.18005242,4.50936763 9.84154148,4.50936763 C10.4969996,4.50936763 11.1350851,4.62704863 11.734009,4.85386333 C12.1213755,5.00056048 12.5543196,4.8054594 12.7010168,4.41809288 C12.8477139,4.03072636 12.6526129,3.59778221 12.2652463,3.45108506 C11.4972309,3.16023475 10.6792048,3.00936763 9.84154148,3.00936763 Z" id="形状" fill="#000000" fill-rule="nonzero"></path>
    </g>
</svg>