<?xml version="1.0" encoding="UTF-8"?>
<svg width="24px" height="24px" viewBox="0 0 24 24" version="1.1" xmlns="http://www.w3.org/2000/svg" xmlns:xlink="http://www.w3.org/1999/xlink">
    <title>ic_edit_photo_doodle_stroke_5</title>
    <g id="ic_edit_photo_doodle_stroke_5" stroke="none" stroke-width="1" fill="none" fill-rule="evenodd">
        <path d="M12,3 C16.9705627,3 21,7.02943725 21,12 C21,16.9705627 16.9705627,21 12,21 C7.02943725,21 3,16.9705627 3,12 C3,7.02943725 7.02943725,3 12,3 Z M12,4.5 C7.85786438,4.5 4.5,7.85786438 4.5,12 C4.5,16.1421356 7.85786438,19.5 12,19.5 C16.1421356,19.5 19.5,16.1421356 19.5,12 C19.5,7.85786438 16.1421356,4.5 12,4.5 Z M12,6.5 C15.025,6.5 17.5,8.975 17.5,12 C17.5,15.025 15.025,17.5 12,17.5 C8.975,17.5 6.5,15.025 6.5,12 C6.5,8.975 8.975,6.5 12,6.5 Z" id="形状" fill="#000000" fill-rule="nonzero"></path>
    </g>
</svg>