<?xml version="1.0" encoding="UTF-8"?>
<svg width="24px" height="24px" viewBox="0 0 24 24" version="1.1" xmlns="http://www.w3.org/2000/svg" xmlns:xlink="http://www.w3.org/1999/xlink">
    <title>ic_edit_photo_more_mosaic</title>
    <g id="ic_edit_photo_more_mosaic" stroke="none" stroke-width="1" fill="none" fill-rule="evenodd">
        <path d="M19.5,3 C20.3284271,3 21,3.67157288 21,4.5 L21,19.5 C21,20.3284271 20.3284271,21 19.5,21 L4.5,21 C3.67157288,21 3,20.3284271 3,19.5 L3,4.5 C3,3.67157288 3.67157288,3 4.5,3 L19.5,3 Z M19.5,4.5 L4.5,4.5 L4.5,19.5 L19.5,19.5 L19.5,4.5 Z M10.5135963,12.0563829 C11.3420234,12.0563829 12.0135963,12.7279558 12.0135963,13.5563829 L12.0135963,16.5835754 C12.0135963,17.4120026 11.3420234,18.0835754 10.5135963,18.0835754 L7.48640373,18.0835754 C6.65797661,18.0835754 5.98640373,17.4120026 5.98640373,16.5835754 L5.98640373,13.5563829 C5.98640373,12.7279558 6.65797661,12.0563829 7.48640373,12.0563829 L10.5135963,12.0563829 Z M10.5135963,13.5563829 L7.48640373,13.5563829 L7.48640373,16.5835754 L10.5135963,16.5835754 L10.5135963,13.5563829 Z M16.5271925,6.02919038 C17.3556197,6.02919038 18.0271925,6.70076326 18.0271925,7.52919038 L18.0271925,10.5563829 C18.0271925,11.38481 17.3556197,12.0563829 16.5271925,12.0563829 L13.5,12.0563829 C12.6715729,12.0563829 12,11.38481 12,10.5563829 L12,7.52919038 C12,6.70076326 12.6715729,6.02919038 13.5,6.02919038 L16.5271925,6.02919038 Z M16.5271925,7.52919038 L13.5,7.52919038 L13.5,10.5563829 L16.5271925,10.5563829 L16.5271925,7.52919038 Z" id="形状" fill="#000000" fill-rule="nonzero"></path>
    </g>
</svg>