<?xml version="1.0" standalone="no"?><!DOCTYPE svg PUBLIC "-//W3C//DTD SVG 1.1//EN" "http://www.w3.org/Graphics/SVG/1.1/DTD/svg11.dtd"><svg t="1637721654457" class="icon" viewBox="0 0 1024 1024" version="1.1" xmlns="http://www.w3.org/2000/svg" p-id="2310" xmlns:xlink="http://www.w3.org/1999/xlink" width="30" height="30"><defs><style type="text/css"></style></defs><path d="M912 431.488a48.64 48.64 0 0 0-48 49.28v447.296h-768V113.408h400.768c27.328 0 49.344-21.504 49.344-48s-22.016-48-49.344-48H49.216l-0.64 0.128c-0.256 0-0.32-0.192-0.576-0.192a45.952 45.952 0 0 0-30.464 12.032c-0.896 0.96-2.368 1.28-3.264 2.304-0.896 1.024-1.408 2.24-2.304 3.264A46.912 46.912 0 0 0 0 65.344l0.128 0.64L0 66.688V974.72l0.128 0.704L0 976c0 11.584 4.736 21.632 11.648 29.952 1.088 1.28 1.6 2.752 2.752 3.904 0.768 0.768 1.856 1.152 2.752 1.856 8.32 7.296 18.944 12.288 30.848 12.288l0.64-0.128 0.64 0.128h861.376l0.768-0.128 0.576 0.128a46.528 46.528 0 0 0 30.528-12.032c1.024-0.896 2.368-1.344 3.264-2.24 1.024-1.024 1.344-2.176 2.24-3.392a45.888 45.888 0 0 0 11.968-30.4l-0.128-0.64 0.128-0.64V480.704a48.512 48.512 0 0 0-48-49.216z" p-id="2311"></path><path d="M368.896 681.344l171.136-86.848-84.864-90.496zM931.648 190.848l-85.76-91.2-368.384 381.184L563.328 572.16zM1009.728 34.56l-17.28-19.648a46.72 46.72 0 0 0-68.352 0l-57.024 59.84 85.76 91.392 57.024-59.84a52.48 52.48 0 0 0-0.128-71.744z" p-id="2312"></path></svg>