<?xml version="1.0" encoding="UTF-8"?>
<svg width="24px" height="24px" viewBox="0 0 24 24" version="1.1" xmlns="http://www.w3.org/2000/svg" xmlns:xlink="http://www.w3.org/1999/xlink">
    <title>ic_edit_photo_more_blur</title>
    <defs>
        <path d="M18.5295547,13.9732793 C18.5295547,17.521082 15.6084992,20.4014402 12,20.4014402 L12,21.9014402 C16.432252,21.9014402 20.0295547,18.3542565 20.0295547,13.9732793 C20.0295547,10.2490221 16.9725274,6.14855687 13.0158837,2.51894751 C12.9759056,2.48214132 12.9759056,2.48214132 12.941359,2.45092109 C12.655971,2.21670358 12.3369236,2.09855985 11.999545,2.09855985 C11.6667471,2.09855985 11.3526519,2.21351866 11.0982242,2.41666131 L11.0619615,2.44755028 L11.0484849,2.4597963 L10.9809153,2.5218383 C7.02554584,6.15125665 3.97044533,10.2501968 3.97044533,13.9732793 C3.97044533,18.3707331 7.48109157,21.9014402 11.8971763,21.9014402 L12,21.9014402 L12,20.4014402 L11.8971763,20.4014402 C8.31143802,20.4014402 5.47044533,17.5442132 5.47044533,13.9732793 C5.47044533,10.8379832 8.35667166,6.96561659 11.9961379,3.62606697 L11.9999886,3.6225304 C15.6427211,6.96474821 18.5295547,10.8376229 18.5295547,13.9732793 Z" id="path-1"></path>
    </defs>
    <g id="ic_edit_photo_more_blur" stroke="none" stroke-width="1" fill="none" fill-rule="evenodd">
        <mask id="mask-2" fill="white">
            <use xlink:href="#path-1"></use>
        </mask>
        <use id="Combined-Shape" fill="#000000" fill-rule="nonzero" xlink:href="#path-1"></use>
    </g>
</svg>