<?xml version="1.0" encoding="UTF-8"?>
<svg width="24px" height="24px" viewBox="0 0 24 24" version="1.1" xmlns="http://www.w3.org/2000/svg" xmlns:xlink="http://www.w3.org/1999/xlink">
    <title>ic_edit_photo_label_text</title>
    <g id="ic_edit_photo_label_text" stroke="none" stroke-width="1" fill="none" fill-rule="evenodd">
        <path d="M22,20.5 L22,22 L19,22 L19,20.5 L22,20.5 Z M3.5,19 L3.5,22 L2,22 L2,19 L3.5,19 Z M15.8333333,20.5 L15.8333333,22 L12.8333333,22 L12.8333333,20.5 L15.8333333,20.5 Z M9.66666667,20.5 L9.66666667,22 L6.66666667,22 L6.66666667,20.5 L9.66666667,20.5 Z M16.164128,7.53045622 C16.3207447,7.53045622 16.4608891,7.66367232 16.4613674,7.82685895 L16.5320088,10.4028972 C16.5320088,10.4946157 16.5057025,10.5735345 16.4467239,10.6325131 C16.3826518,10.6965852 16.2993531,10.735458 16.2171081,10.735458 L15.9168874,10.735458 C15.7794646,10.735458 15.6404837,10.6229496 15.6205771,10.483138 C15.501013,9.87203231 15.3454148,9.50962444 15.1782621,9.33987444 L15.1107835,9.278021 C14.9419933,9.15745655 14.3586582,9.04009371 13.6271021,9.04009371 L13.0177162,9.04009371 C12.86873,9.04009371 12.7498354,9.1589883 12.7498354,9.30797451 L12.7498354,15.580191 C12.7498354,15.9933384 12.8024407,16.2125271 12.8420253,16.257829 C12.9924258,16.3179892 13.453956,16.402559 13.9476781,16.4308533 C14.1165727,16.4308533 14.2449187,16.5591993 14.2449187,16.7280939 L14.2449187,17.1996864 C14.2449187,17.368581 14.0989127,17.5145871 13.9300181,17.5145871 L10.1331086,17.5145871 C9.96421398,17.5145871 9.81820791,17.368581 9.81820791,17.1996864 L9.81820791,16.7280939 C9.81820791,16.5712092 9.95188025,16.4308533 10.1141332,16.4308706 C10.6199932,16.4175585 11.062764,16.3044887 11.1160153,16.2512374 L11.1619509,16.2071127 L11.1619509,16.2071127 L11.1775866,16.1655232 L11.1775866,16.1655232 L11.2102333,16.0122244 L11.2102333,16.0122244 L11.2277142,15.9075742 C11.2301156,15.8894167 11.2322498,15.8702602 11.2341003,15.8491431 L11.2416679,15.6912211 L11.2416679,15.6912211 L11.242651,9.25499437 C11.242651,9.10600817 11.1237564,8.98711358 10.9747702,8.98711358 L10.3728386,8.98711358 C10.0839256,8.98711358 9.81492037,9.00530578 9.58701109,9.0339329 L9.33460206,9.07279774 C9.10463119,9.11567842 8.94604295,9.16911721 8.89545062,9.21970954 L8.87313227,9.24148185 C8.6951176,9.37993771 8.54429072,9.67864252 8.417295,10.247791 L8.37990786,10.426759 C8.35964281,10.5888794 8.23602231,10.7001379 8.08305334,10.7001379 L7.78283259,10.7001379 C7.68444189,10.7001379 7.60637815,10.6689124 7.55321677,10.597193 C7.49423818,10.5382144 7.46799121,10.4592956 7.46799121,10.365141 L7.5738922,7.82769684 C7.5738922,7.67081218 7.70756454,7.53045622 7.87113281,7.53045622 L16.164128,7.53045622 Z M22,14.3333333 L22,17.3333333 L20.5,17.3333333 L20.5,14.3333333 L22,14.3333333 Z M3.5,12.8333333 L3.5,15.8333333 L2,15.8333333 L2,12.8333333 L3.5,12.8333333 Z M22,8.16666667 L22,11.1666667 L20.5,11.1666667 L20.5,8.16666667 L22,8.16666667 Z M3.5,6.66666667 L3.5,9.66666667 L2,9.66666667 L2,6.66666667 L3.5,6.66666667 Z M22,2 L22,5 L20.5,5 L20.5,2 L22,2 Z M5,2 L5,3.5 L2,3.5 L2,2 L5,2 Z M11.1666667,2 L11.1666667,3.5 L8.16666667,3.5 L8.16666667,2 L11.1666667,2 Z M17.3333333,2 L17.3333333,3.5 L14.3333333,3.5 L14.3333333,2 L17.3333333,2 Z" id="形状" fill="#FFFFFF" fill-rule="nonzero"></path>
    </g>
</svg>