<?xml version="1.0" encoding="UTF-8"?>
<svg width="24px" height="24px" viewBox="0 0 24 24" version="1.1" xmlns="http://www.w3.org/2000/svg" xmlns:xlink="http://www.w3.org/1999/xlink">
    <title>ic_edit_photo_doodle_pen_rectangle</title>
    <g id="ic_edit_photo_doodle_pen_rectangle" stroke="none" stroke-width="1" fill="none" fill-rule="evenodd">
        <path d="M19.5,16 C20.3284271,16 21,16.6715729 21,17.5 L21,20.5 C21,21.3284271 20.3284271,22 19.5,22 L16.5,22 C15.6715729,22 15,21.3284271 15,20.5 L15,17.5 C15,16.6715729 15.6715729,16 16.5,16 L19.5,16 Z M7.18640954,14.9344483 C8.62103366,14.9344483 9.78854268,16.0754941 9.78827934,17.4779759 C9.78827934,19.4460866 8.15107967,21.0471567 6.13823301,21.0471567 C5.00312552,21.0471567 3.83377251,20.5876475 2.9702584,19.8342483 C3.76388685,19.4924345 4.49357816,18.7652568 4.57667808,17.6847114 L4.58453982,17.4779759 C4.58453982,16.0754941 5.75204884,14.9344483 7.18640954,14.9344483 Z M19.5,17.5 L16.5,17.5 L16.5,20.5 L19.5,20.5 L19.5,17.5 Z M7.18640954,16.4344483 C6.57283228,16.4344483 6.08453982,16.9117549 6.08453982,17.4779759 C6.08453982,18.2244694 5.89085106,18.90414 5.55071558,19.4869155 C5.74771355,19.5264738 5.94514266,19.5471567 6.13823301,19.5471567 C7.33002174,19.5471567 8.28827932,18.6101033 8.28827932,17.4776941 C8.2883856,16.9116483 7.80020218,16.4344483 7.18640954,16.4344483 Z M19.8425458,3.42749605 L20.5986266,4.18357693 C21.1844131,4.76936336 21.1844131,5.71911083 20.5986266,6.30489727 L12.1867646,14.7167593 C11.6009782,15.3025457 10.6512307,15.3025457 10.0654443,14.7167593 L9.3093634,13.9606784 C8.72357696,13.374892 8.72357696,12.4251445 9.3093634,11.8393581 L17.7212254,3.42749605 C18.3070119,2.84170961 19.2567593,2.84170961 19.8425458,3.42749605 Z M18.7818856,4.48815622 L10.3700236,12.9000182 L11.1261044,13.6560991 L19.5379665,5.2442371 L18.7818856,4.48815622 Z" id="形状" fill="#000000" fill-rule="nonzero"></path>
    </g>
</svg>