<?xml version="1.0" encoding="UTF-8"?>
<svg width="24px" height="24px" viewBox="0 0 24 24" version="1.1" xmlns="http://www.w3.org/2000/svg" xmlns:xlink="http://www.w3.org/1999/xlink">
    <title>ic_edit_photo_adjust_brightness</title>
    <g id="ic_edit_photo_adjust_brightness" stroke="none" stroke-width="1" fill="none" fill-rule="evenodd">
        <path d="M12.0134106,1.89153995 C12.3931061,1.89200203 12.7065585,2.17453673 12.7557768,2.54067232 L12.7625,2.64245111 L12.7615159,3.78371505 C14.5095219,3.9414322 16.1002702,4.64438152 17.362378,5.72118023 L18.1942021,4.89130278 C18.4874507,4.59876538 18.9623241,4.59934193 19.2548619,4.89259014 C19.5208046,5.15918015 19.5445047,5.57587294 19.3262942,5.86922002 L19.2535741,5.95325033 L18.4113438,6.79449679 C19.430759,8.04645964 20.0901994,9.60320832 20.2319023,11.3069799 L21.3520085,11.3101475 C21.7662208,11.3112068 22.1011474,11.6478509 22.1000931,12.0620631 C22.0991173,12.4417576 21.8161616,12.7548302 21.4499603,12.8035582 L21.3481725,12.8101451 L20.2216145,12.807164 C20.0540826,14.532487 19.3551063,16.1022104 18.2904474,17.3505729 L19.2535164,18.3159235 C19.5460538,18.6091721 19.5454772,19.0840455 19.252229,19.3765833 C18.985639,19.642526 18.5689462,19.6662261 18.2755991,19.4480156 L18.1915688,19.3752955 L17.2177093,18.399436 C15.9794203,19.4082326 14.4427762,20.0647939 12.7605226,20.2163745 L12.7605977,21.3958333 C12.7605977,21.8100469 12.4248113,22.1458333 12.0105977,22.1458333 C11.630902,22.1458333 11.3171068,21.8636795 11.2674444,21.4976039 L11.2605977,21.3958333 L11.2606768,20.2163749 C9.57932764,20.0648766 8.04343129,19.4089404 6.805487,18.4010656 L5.82889567,19.3752377 C5.53564706,19.6677751 5.06077368,19.6671986 4.76823588,19.3739504 C4.50229316,19.1073604 4.47859303,18.6906676 4.69680351,18.3973205 L4.76952364,18.3132902 L5.73245985,17.3525794 C4.69058246,16.1317158 3.99856285,14.6032384 3.81157631,12.9223225 L2.55651075,12.9190192 C2.14229854,12.9179626 1.80736972,12.5813207 1.80842133,12.1671085 C1.80939464,11.787414 2.09234823,11.4743395 2.45854929,11.4256091 L2.56033698,11.4190216 L3.78052289,11.4221119 C3.90155906,9.67290083 4.56786735,8.0737682 5.61067097,6.79349081 L4.76958138,5.95061707 C4.47704399,5.65736846 4.47762054,5.18249507 4.77086874,4.88995728 C5.03745875,4.62401455 5.45415155,4.60031443 5.74749863,4.81852491 L5.83152893,4.89124504 L6.65982644,5.72031956 C7.92225311,4.64359748 9.51334946,3.94085562 11.2616742,3.78353533 L11.2625006,2.64062994 C11.2630035,2.22641669 11.5991973,1.89103818 12.0134106,1.89153995 Z M12.0105977,5.25 C8.28267568,5.25 5.26059774,8.27207794 5.26059774,12 C5.26059774,15.7279221 8.28267568,18.75 12.0105977,18.75 C15.7385198,18.75 18.7605977,15.7279221 18.7605977,12 C18.7605977,8.27207794 15.7385198,5.25 12.0105977,5.25 Z M11.9982707,7.22603353 L11.9982707,16.7739665 C9.36167719,16.7739665 7.2243042,14.6365935 7.2243042,12 C7.2243042,9.4346658 9.24770478,7.34193186 11.7856191,7.23068499 L11.9982707,7.22603353 Z" id="形状" fill="#000000"></path>
    </g>
</svg>