<?xml version="1.0" encoding="UTF-8"?>
<svg width="24px" height="24px" viewBox="0 0 24 24" version="1.1" xmlns="http://www.w3.org/2000/svg" xmlns:xlink="http://www.w3.org/1999/xlink">
    <title>mdpi/ic_gallery_public_save</title>
    <g id="ic_gallery_public_save" stroke="none" stroke-width="1" fill="none" fill-rule="evenodd">
        <path d="M17.75,2 L17.7520126,2.01890136 C18.7791532,2.0686434 19.3094687,2.21581141 19.7921438,2.45147939 L19.9536914,2.53426541 C20.5745027,2.86627892 21.0680807,3.34610464 21.4148264,3.9541436 L21.4657346,4.04630859 C21.5024308,4.11492458 21.5373214,4.18348206 21.5703798,4.25331273 L21.6640321,4.46795593 C21.8402379,4.91020809 21.9495339,5.44623491 21.986204,6.36367807 L21.9984605,6.85551601 C21.9994857,6.94323035 22,7.03392632 22,7.1277704 L22,16.8722296 L21.9989932,17.0937657 C21.9859758,18.4884263 21.8469417,19.1407938 21.5946788,19.6943859 L21.4657346,19.9536914 C21.1337211,20.5745027 20.6538954,21.0680807 20.0458564,21.4148264 L19.9536914,21.4657346 C19.8850754,21.5024308 19.8165179,21.5373214 19.7466873,21.5703798 L19.5320441,21.6640321 C19.0897919,21.8402379 18.5537651,21.9495339 17.6363219,21.986204 L17.144484,21.9984605 C17.0567697,21.9994857 16.9660737,22 16.8722296,22 L7.1277704,22 L6.90623426,21.9989932 C5.51157373,21.9859758 4.85920618,21.8469417 4.30561415,21.5946788 L4.04630859,21.4657346 C3.42549731,21.1337211 2.93191931,20.6538954 2.58517358,20.0458564 L2.53426541,19.9536914 C2.49756918,19.8850754 2.46267863,19.8165179 2.42962023,19.7466873 L2.33596793,19.5320441 C2.15976206,19.0897919 2.05046611,18.5537651 2.01379596,17.6363219 L2.0015395,17.144484 L2.0015395,17.144484 L2,7.1277704 C2,5.47961992 2.15862462,4.80249093 2.457955,4.19465027 L2.53426541,4.04630859 C2.86627892,3.42549731 3.34610464,2.93191931 3.9541436,2.58517358 L4.04630859,2.53426541 C4.57769437,2.25007718 5.10557179,2.0741846 6.24845829,2.01887856 L6.25,2 L17.75,2 Z M17.7514636,3.51799203 L17.75,7.25 C17.75,8.71253184 16.6082954,9.90840428 15.1675223,9.99498121 L15,10 L9,10 C7.53746816,10 6.34159572,8.8582954 6.25501879,7.41752233 L6.25,7.25 L6.24877877,3.51799203 C5.49137422,3.55599646 5.12615584,3.65779732 4.75370688,3.8569852 C4.36325774,4.06579969 4.06579969,4.36325774 3.8569852,4.75370688 C3.65892249,5.12405196 3.55714967,5.48724792 3.51864218,6.235981 L3.50450765,6.64429363 L3.50450765,6.64429363 L3.5,7.1277704 L3.5,7.1277704 L3.501658,17.176942 L3.51171091,17.6073267 L3.51171091,17.6073267 L3.53163959,17.9710552 C3.56937816,18.4718719 3.64340866,18.7829339 3.76705642,19.062689 L3.8569852,19.2462931 L3.8569852,19.2462931 C4.06579969,19.6367423 4.36325774,19.9342003 4.75370688,20.1430148 C5.09771631,20.326993 5.43555723,20.4278891 6.08195881,20.4721713 L6.46703424,20.4908697 C6.53694421,20.4931033 6.6098772,20.4949089 6.68606965,20.4963062 L7.1277704,20.5 L16.8722296,20.5 L17.3557064,20.4954923 L17.3557064,20.4954923 L17.764019,20.4813578 C18.5127521,20.4428503 18.875948,20.3410775 19.2462931,20.1430148 C19.6367423,19.9342003 19.9342003,19.6367423 20.1430148,19.2462931 C20.326993,18.9022837 20.4278891,18.5644428 20.4721713,17.9180412 L20.4908697,17.5329658 C20.4931033,17.4630558 20.4949089,17.3901228 20.4963062,17.3139303 L20.5,16.8722296 L20.5,7.1277704 L20.4954923,6.64429363 L20.4954923,6.64429363 L20.4813578,6.235981 C20.4428503,5.48724792 20.3410775,5.12405196 20.1430148,4.75370688 C19.9342003,4.36325774 19.6367423,4.06579969 19.2462931,3.8569852 C18.8738839,3.65781857 18.5087037,3.55601818 17.7514636,3.51799203 Z M17,15 C17.4142136,15 17.75,15.3357864 17.75,15.75 C17.75,16.1494202 17.43777,16.4759152 17.0440682,16.4987268 L17,16.5 L7,16.5 C6.58578644,16.5 6.25,16.1642136 6.25,15.75 C6.25,15.3505798 6.56222999,15.0240848 6.9559318,15.0012732 L17,15 Z M16.25,3.5 L7.75,3.5 L7.75,7.25 C7.75,7.88017688 8.21632716,8.40143722 8.82272672,8.48752627 L8.94577759,8.49884512 L9,8.5 L15,8.5 C15.6472087,8.5 16.1795339,8.00812534 16.2435464,7.37780524 L16.25,7.25 L16.25,3.5 Z" id="形状" fill="#000000" fill-rule="nonzero"></path>
    </g>
</svg>