<?xml version="1.0" encoding="UTF-8"?>
<svg width="24px" height="24px" viewBox="0 0 24 24" version="1.1" xmlns="http://www.w3.org/2000/svg" xmlns:xlink="http://www.w3.org/1999/xlink">
    <title>xxxhdpi/ic_gallery_public_select all</title>
    <defs>
        <path d="M6.4867991,4.5 L15.0132009,4.5 L15.4235832,4.50420108 L15.7871609,4.51674041 L16.1087593,4.53752211 C16.436161,4.5644656 16.6981555,4.6057503 16.9223487,4.66082763 L17.0718594,4.70115491 L17.1658281,4.73046818 L17.2559364,4.7617102 L17.3427875,4.794869 L17.468276,4.84817491 L17.468276,4.84817491 L17.5898283,4.90572614 L17.5898283,4.90572614 L17.70948,4.96748223 L17.70948,4.96748223 C18.2798504,5.27251964 18.7274804,5.72014965 19.0325178,6.29052002 L19.1518251,6.53172398 L19.1518251,6.53172398 L19.205131,6.65721253 L19.205131,6.65721253 L19.2382898,6.74406358 L19.2695318,6.8341719 L19.3127747,6.97676111 L19.3391724,7.0776513 C19.390013,7.28459888 19.4291013,7.52375586 19.4560058,7.81683501 L19.4832596,8.21283906 L19.4832596,8.21283906 L19.4957989,8.57641683 L19.5,8.9867991 L19.5,17.5132009 L19.4957989,17.9235832 L19.4832596,18.2871609 L19.4624779,18.6087593 C19.4355344,18.936161 19.3942497,19.1981555 19.3391724,19.4223487 L19.2988451,19.5718594 L19.2695318,19.6658281 L19.2382898,19.7559364 L19.205131,19.8427875 L19.1518251,19.968276 L19.1518251,19.968276 L19.0942739,20.0898283 L19.0942739,20.0898283 L19.0325178,20.20948 L19.0325178,20.20948 C18.7274804,20.7798504 18.2798504,21.2274804 17.70948,21.5325178 L17.468276,21.6518251 L17.468276,21.6518251 L17.3427875,21.705131 L17.3427875,21.705131 L17.2559364,21.7382898 L17.1658281,21.7695318 L17.0232389,21.8127747 L16.9223487,21.8391724 C16.7154011,21.890013 16.4762441,21.9291013 16.183165,21.9560058 L15.7871609,21.9832596 L15.7871609,21.9832596 L15.4235832,21.9957989 L15.0132009,22 L6.4867991,22 L6.07641683,21.9957989 L5.71283906,21.9832596 L5.39124074,21.9624779 C5.06383903,21.9355344 4.80184451,21.8942497 4.5776513,21.8391724 L4.42814062,21.7988451 L4.3341719,21.7695318 L4.24406358,21.7382898 L4.15721253,21.705131 L4.03172398,21.6518251 L4.03172398,21.6518251 L3.91017167,21.5942739 L3.91017167,21.5942739 L3.79052002,21.5325178 L3.79052002,21.5325178 C3.22014965,21.2274804 2.77251964,20.7798504 2.46748223,20.20948 L2.34817491,19.968276 L2.34817491,19.968276 L2.294869,19.8427875 L2.294869,19.8427875 L2.2617102,19.7559364 L2.23046818,19.6658281 L2.1872253,19.5232389 L2.16082763,19.4223487 C2.10998702,19.2154011 2.07089871,18.9762441 2.04399417,18.683165 L2.01674041,18.2871609 L2.01674041,18.2871609 L2.00420108,17.9235832 L2,17.5132009 L2.00026332,8.87955174 L2.00420108,8.57641683 L2.01674041,8.21283906 L2.03752211,7.89124074 C2.0644656,7.56383903 2.1057503,7.30184451 2.16082763,7.0776513 L2.20115491,6.92814062 L2.23046818,6.8341719 L2.2617102,6.74406358 L2.294869,6.65721253 L2.34817491,6.53172398 L2.34817491,6.53172398 L2.40572614,6.41017167 L2.40572614,6.41017167 L2.46748223,6.29052002 L2.46748223,6.29052002 C2.77251964,5.72014965 3.22014965,5.27251964 3.79052002,4.96748223 L4.03172398,4.84817491 L4.03172398,4.84817491 L4.15721253,4.794869 L4.15721253,4.794869 L4.24406358,4.7617102 L4.3341719,4.73046818 L4.47676111,4.6872253 L4.5776513,4.66082763 C4.78459888,4.60998702 5.02375586,4.57089871 5.31683501,4.54399417 L5.71283906,4.51674041 L5.71283906,4.51674041 L6.07641683,4.50420108 L6.4867991,4.5 Z M15.6256139,6.00904495 L15.2959116,6.00161249 L6.19886103,6.00161249 L5.94044884,6.0069313 L5.64106334,6.01991578 L5.44640173,6.03444897 L5.44640173,6.03444897 L5.22082948,6.06067536 L5.22082948,6.06067536 L5.12054988,6.07688352 L4.94043739,6.11584487 L4.85877796,6.13874008 L4.70768641,6.19171464 L4.70768641,6.19171464 L4.63642775,6.22193602 L4.56680947,6.25474148 L4.49791831,6.29020203 C4.18895065,6.45543974 3.95543974,6.68895065 3.79020203,6.99791831 L3.75571745,7.06483541 L3.72374033,7.13241404 L3.66704807,7.27290473 C3.6410575,7.34576509 3.61853517,7.42338517 3.59918813,7.50953238 L3.58088868,7.59866151 L3.564641,7.69431259 L3.54397413,7.85184927 L3.54397413,7.85184927 L3.5229919,8.09253894 L3.50904495,8.37438611 L3.50161249,8.70408841 L3.50161249,17.801139 L3.5069313,18.0595512 L3.51991578,18.3589367 L3.53444897,18.5535983 L3.53444897,18.5535983 L3.56067536,18.7791705 L3.56067536,18.7791705 L3.57688352,18.8794501 L3.61584487,19.0595626 L3.63874008,19.141222 L3.69171464,19.2923136 L3.69171464,19.2923136 L3.72193602,19.3635723 L3.75474148,19.4331905 L3.79020203,19.5020817 C3.95543974,19.8110494 4.18895065,20.0445603 4.49791831,20.209798 L4.56483541,20.2442825 L4.63241404,20.2762597 L4.77290473,20.3329519 C4.84576509,20.3589425 4.92338517,20.3814648 5.00953238,20.4008119 L5.09866151,20.4191113 L5.19431259,20.435359 L5.35184927,20.4560259 L5.35184927,20.4560259 L5.59253894,20.4770081 L5.87438611,20.4909551 L6.20408841,20.4983875 L15.2959116,20.4983875 L15.6256139,20.4909551 L15.9074611,20.4770081 L16.1481507,20.4560259 L16.3056874,20.435359 L16.4013385,20.4191113 L16.4904676,20.4008119 C16.5766148,20.3814648 16.6542349,20.3589425 16.7270953,20.3329519 L16.867586,20.2762597 L16.9351646,20.2442825 L17.0020817,20.209798 C17.3110494,20.0445603 17.5445603,19.8110494 17.709798,19.5020817 L17.7442825,19.4351646 L17.7762597,19.367586 L17.8329519,19.2270953 C17.8589425,19.1542349 17.8814648,19.0766148 17.9008119,18.9904676 L17.9191113,18.9013385 L17.935359,18.8056874 L17.9560259,18.6481507 L17.9560259,18.6481507 L17.9770081,18.4074611 L17.9909551,18.1256139 L17.9983875,17.7959116 L17.9983875,8.70408841 L17.9909551,8.37438611 L17.9770081,8.09253894 L17.9560259,7.85184927 L17.935359,7.69431259 L17.9191113,7.59866151 L17.9008119,7.50953238 C17.8814648,7.42338517 17.8589425,7.34576509 17.8329519,7.27290473 L17.7762597,7.13241404 L17.7442825,7.06483541 L17.709798,6.99791831 C17.5445603,6.68895065 17.3110494,6.45543974 17.0020817,6.29020203 L16.9351646,6.25571745 L16.867586,6.22374033 L16.7270953,6.16704807 C16.6542349,6.1410575 16.5766148,6.11853517 16.4904676,6.09918813 L16.4013385,6.08088868 L16.3056874,6.064641 L16.1481507,6.04397413 L16.1481507,6.04397413 L15.9074611,6.0229919 L15.6256139,6.00904495 Z M9.35551601,2.0015395 L15.590287,2 C17.515157,2 18.3804612,2.17308908 19.1055302,2.50099869 L19.33091,2.60967418 C19.3680538,2.62863739 19.4050772,2.64802414 19.4421143,2.66783176 C20.2569291,3.10359949 20.8964005,3.74307093 21.3321682,4.55788574 L21.4459422,4.78101661 C21.7900981,5.49387056 21.980395,6.29857399 21.9985643,8.11445738 L21.9985643,14.644484 L21.9985643,14.644484 L21.986204,15.1363219 C21.9495339,16.0537651 21.8402379,16.5897919 21.6640321,17.0320441 L21.5703798,17.2466873 C21.5373214,17.3165179 21.5024308,17.3850754 21.4657346,17.4536914 C21.2201431,17.9129076 20.8936745,18.3025066 20.4942613,18.6145562 L20.4985008,18.3959841 L20.4985008,18.3959841 L20.4985008,8.10401595 C20.4828731,6.8916293 20.3429795,6.23976193 19.9811141,5.56313259 C19.6264537,4.89997522 19.1000248,4.3735463 18.4368674,4.01888586 C17.7384113,3.64534745 17.0663405,3.50833246 15.7768869,3.50037153 L5.8458278,3.5 C5.68310622,3.5 5.5299464,3.50188529 5.38516578,3.50585327 C5.69792007,3.10596794 6.0873439,2.77972241 6.54630859,2.53426541 C6.61492458,2.49756918 6.68348206,2.46267863 6.75331273,2.42962023 L6.96795593,2.33596793 C7.41020809,2.15976206 7.94623491,2.05046611 8.86367807,2.01379596 L9.35551601,2.0015395 L9.35551601,2.0015395 Z M15.8083289,10.2550281 C16.0907617,10.5374608 16.1008486,10.9891076 15.8385896,11.2836271 L10.6085815,16.5154357 C9.93940183,17.1846154 8.86310923,17.1985566 8.17696655,16.5572595 L5.68396027,14.0656883 C5.39106705,13.772795 5.39106705,13.2979213 5.68396027,13.0050281 C5.96639302,12.7225953 6.41803979,12.7125085 6.71255925,12.9747674 L8.84081452,15.1012222 C9.12324727,15.3836549 9.57489404,15.3937418 9.8694135,15.1314828 L14.7476688,10.2550281 C15.040562,9.96213487 15.5154357,9.96213487 15.8083289,10.2550281 Z" id="path-1"></path>
    </defs>
    <g id="ic_gallery_public_select-all" stroke="none" stroke-width="1" fill="none" fill-rule="evenodd">
        <mask id="mask-2" fill="white">
            <use xlink:href="#path-1"></use>
        </mask>
        <use id="形状" fill="#000000" xlink:href="#path-1"></use>
    </g>
</svg>