<?xml version="1.0" encoding="UTF-8"?>
<svg width="24px" height="24px" viewBox="0 0 24 24" version="1.1" xmlns="http://www.w3.org/2000/svg" xmlns:xlink="http://www.w3.org/1999/xlink">
    <title>ic_navigation_photo_line</title>
    <g id="ic_navigation_photo_line" stroke="none" stroke-width="1" fill="none" fill-rule="evenodd">
        <path d="M6.91631345,22 C5.4822629,22 4.78434081,21.865225 4.05892659,21.4772693 C3.3985956,21.1241204 2.87587962,20.6014044 2.52273075,19.9410734 L2.43961743,19.7785158 L2.43961743,19.7785158 L2.36620332,19.6186495 L2.1698636,19.1640257 L2.20306886,19.1293767 C2.16965635,19.0040082 2.1402583,18.8683967 2.11495575,18.7184631 L2.06983534,18.3982912 C2.03022364,18.0566059 2.00721011,17.6467547 2.00144322,17.1361052 L2,7.1277704 C2,5.47961992 2.15862462,4.80249093 2.457955,4.19465027 L2.53426541,4.04630859 C2.86627892,3.42549731 3.34610464,2.93191931 3.9541436,2.58517358 L4.04630859,2.53426541 C4.11492458,2.49756918 4.18348206,2.46267863 4.25331273,2.42962023 L4.46795593,2.33596793 C4.91020809,2.15976206 5.44623491,2.05046611 6.36367807,2.01379596 L6.85551601,2.0015395 L6.85551601,2.0015395 L16.8722296,2 C18.5203801,2 19.1975091,2.15862462 19.8053497,2.457955 L19.9536914,2.53426541 C20.5745027,2.86627892 21.0680807,3.34610464 21.4148264,3.9541436 L21.4657346,4.04630859 C21.5024308,4.11492458 21.5373214,4.18348206 21.5703798,4.25331273 L21.6640321,4.46795593 C21.8402379,4.91020809 21.9495339,5.44623491 21.986204,6.36367807 L21.9984605,6.85551601 C21.9994857,6.94323035 22,7.03392632 22,7.1277704 L22,13.642 L20.5,12.141 L20.5,7.1277704 L20.4954923,6.64429363 L20.4954923,6.64429363 L20.4813578,6.235981 C20.4428503,5.48724792 20.3410775,5.12405196 20.1430148,4.75370688 C19.9342003,4.36325774 19.6367423,4.06579969 19.2462931,3.8569852 C18.9022837,3.67300695 18.5644428,3.57211094 17.9180412,3.52782874 L17.5329658,3.50913032 C17.3931458,3.50466298 17.2412338,3.50190809 17.0753381,3.50070655 L6.82305804,3.501658 L6.39267325,3.51171091 L6.39267325,3.51171091 L6.02894485,3.53163959 C5.52812815,3.56937816 5.21706614,3.64340866 4.93731103,3.76705642 L4.75370688,3.8569852 L4.75370688,3.8569852 C4.36325774,4.06579969 4.06579969,4.36325774 3.8569852,4.75370688 C3.65892249,5.12405196 3.55714967,5.48724792 3.51864218,6.235981 L3.50450765,6.64429363 L3.50450765,6.64429363 L3.5,7.1277704 L3.5,7.1277704 L3.501658,17.176942 L3.51155437,17.6031398 C3.51398506,17.6684453 3.5168182,17.7310274 3.52007149,17.7910966 L6.23117693,15.0802089 C6.84253138,14.4786014 7.23245121,14.2222995 7.747863,14.06608 C8.18148205,13.9346516 8.62856087,13.9182231 9.07247767,14.0189505 L9.26248567,14.0692985 L9.346174,14.0960881 C9.76912381,14.2383618 10.1211575,14.4666055 10.6105907,14.9278151 L10.7791097,15.0903817 L10.8931669,15.204383 C11.1597602,15.4705871 11.5766907,15.4947436 11.8703757,15.2770762 L11.9545102,15.2045215 L14.7829536,12.3767818 C15.3943081,11.7751743 15.7842279,11.5188724 16.2996397,11.3626529 C16.7952043,11.212449 17.3083491,11.212449 17.8039137,11.3626529 C18.2707741,11.5041566 18.6333112,11.7272388 19.1519794,12.2145886 L19.3310088,12.3870769 L22,15.0558052 L22,17.0836866 C22,18.5177371 21.865225,19.2156592 21.4772693,19.9410734 C21.1241204,20.6014044 20.6014044,21.1241204 19.9410734,21.4772693 C19.3059659,21.8169285 18.6919315,21.9625201 17.5865089,21.9935054 L17.0836866,22 L6.91631345,22 Z M17.3688157,12.7981632 C17.156944,12.7339456 16.9466094,12.7339456 16.7347377,12.7981632 C16.5155059,12.8646115 16.3397968,12.9685666 16.0121992,13.2751225 L15.7691544,13.5113198 L13.0148897,16.2654623 C12.1779774,17.1015262 10.8466086,17.141483 9.96221368,16.3850055 L9.83302443,16.2655605 L9.60062451,16.0368111 L9.60062451,16.0368111 L9.3916292,15.8457342 C9.20308661,15.6824802 9.07029012,15.5975961 8.94273124,15.5451918 L8.87915442,15.5214839 L8.81703899,15.5015903 C8.6051673,15.4373727 8.3948327,15.4373727 8.18296101,15.5015903 C7.96372919,15.5680387 7.78802014,15.6719937 7.46042899,15.9785432 L7.21738947,16.2147352 L3.98094669,19.4519096 L4.05275151,19.5549571 L4.05275151,19.5549571 L4.15541417,19.6761293 L4.27981503,19.8041516 L4.27981503,19.8041516 L4.18899894,19.7148959 L4.24593395,19.7732824 L4.24593395,19.7732824 L4.27981503,19.8041516 C4.41895549,19.9355762 4.57678461,20.0483957 4.75370688,20.1430148 C5.09771631,20.326993 5.43555723,20.4278891 6.08195881,20.4721713 L6.46703424,20.4908697 C6.53694421,20.4931033 6.6098772,20.4949089 6.68606965,20.4963062 L7.1277704,20.5 L16.8722296,20.5 L17.3557064,20.4954923 L17.3557064,20.4954923 L17.764019,20.4813578 C18.5127521,20.4428503 18.875948,20.3410775 19.2462931,20.1430148 C19.6367423,19.9342003 19.9342003,19.6367423 20.1430148,19.2462931 C20.326993,18.9022837 20.4278891,18.5644428 20.4721713,17.9180412 L20.4908697,17.5329658 C20.4931033,17.4630558 20.4949089,17.3901228 20.4963062,17.3139303 L20.5,16.8722296 L20.49975,15.677 L18.2743429,13.4517016 L18.0364253,13.2247616 C17.8234433,13.0302078 17.6780212,12.9268162 17.5349338,12.8606146 L17.4632826,12.830363 L17.3688157,12.7981632 Z M8.25,7.25 C9.21649831,7.25 10,8.03350169 10,9 C10,9.96649831 9.21649831,10.75 8.25,10.75 C7.28350169,10.75 6.5,9.96649831 6.5,9 C6.5,8.03350169 7.28350169,7.25 8.25,7.25 Z" id="形状" fill="#000000" fill-rule="nonzero"></path>
    </g>
</svg>