<?xml version="1.0" encoding="UTF-8"?>
<svg width="24px" height="24px" viewBox="0 0 24 24" version="1.1" xmlns="http://www.w3.org/2000/svg" xmlns:xlink="http://www.w3.org/1999/xlink">
    <title>xxxhdpi/ic_gallery_public_checkbox_filled</title>
    <g id="ic_gallery_public_checkbox_filled" stroke="none" stroke-width="1" fill="none" fill-rule="evenodd">
        <path d="M6,2 L18,2 C20.209139,2 22,3.790861 22,6 L22,18 C22,20.209139 20.209139,22 18,22 L6,22 C3.790861,22 2,20.209139 2,18 L2,6 C2,3.790861 3.790861,2 6,2 Z" id="矩形" fill="#007DFF"></path>
        <path d="M17.7907186,9.61233513 L17.7138519,9.70029675 L11.4393398,16.0961941 L11.368446,16.1606909 L11.368446,16.1606909 L11.2790212,16.2266091 L11.2790212,16.2266091 L11.1682868,16.2893108 L11.1682868,16.2893108 L11.1105565,16.3150413 L11.1105565,16.3150413 L11.0601045,16.3340439 L11.0601045,16.3340439 C10.9023211,16.3885707 10.7342016,16.4025395 10.5713565,16.3761371 C10.3746024,16.3443154 10.1851997,16.2533325 10.0319031,16.1029723 L7.19669914,13.267767 C6.80617485,12.8772427 6.80617485,12.2440777 7.19669914,11.8535534 C7.55932884,11.4909237 8.13117423,11.4650216 8.52369189,11.775847 L8.6109127,11.8535534 L10.7251613,13.9678034 L16.2861481,8.29970325 C16.6729114,7.90545376 17.3060473,7.89938493 17.7003299,8.28611498 C18.0663856,8.64528542 18.0977676,9.21685627 17.7907186,9.61233513 Z" id="路径" fill="#FFFFFF" fill-rule="nonzero"></path>
    </g>
</svg>