<?xml version="1.0" encoding="UTF-8"?>
<svg width="24px" height="24px" viewBox="0 0 24 24" version="1.1" xmlns="http://www.w3.org/2000/svg" xmlns:xlink="http://www.w3.org/1999/xlink">
    <title>xxxhdpi/ic_gallery_public_more</title>
    <g id="ic_gallery_public_more" stroke="none" stroke-width="1" fill="none" fill-rule="evenodd">
        <path d="M6.5,15.5 C7.46649831,15.5 8.25,16.2835017 8.25,17.25 C8.25,18.2164983 7.46649831,19 6.5,19 C5.53350169,19 4.75,18.2164983 4.75,17.25 C4.75,16.2835017 5.53350169,15.5 6.5,15.5 Z M17.5,15.5 C18.4664983,15.5 19.25,16.2835017 19.25,17.25 C19.25,18.2164983 18.4664983,19 17.5,19 C16.5335017,19 15.75,18.2164983 15.75,17.25 C15.75,16.2835017 16.5335017,15.5 17.5,15.5 Z M6.5,5 C7.46649831,5 8.25,5.78350169 8.25,6.75 C8.25,7.71649831 7.46649831,8.5 6.5,8.5 C5.53350169,8.5 4.75,7.71649831 4.75,6.75 C4.75,5.78350169 5.53350169,5 6.5,5 Z M17.5,5 C18.4664983,5 19.25,5.78350169 19.25,6.75 C19.25,7.71649831 18.4664983,8.5 17.5,8.5 C16.5335017,8.5 15.75,7.71649831 15.75,6.75 C15.75,5.78350169 16.5335017,5 17.5,5 Z" id="形状" fill="#000000"></path>
    </g>
</svg>