<?xml version="1.0" encoding="UTF-8"?>
<svg width="24px" height="24px" viewBox="0 0 24 24" version="1.1" xmlns="http://www.w3.org/2000/svg" xmlns:xlink="http://www.w3.org/1999/xlink">
    <title>xxxhdpi/ic_gallery_public_favorite_line</title>
    <g id="ic_gallery_public_favorite_line" stroke="none" stroke-width="1" fill="none" fill-rule="evenodd">
        <path d="M2.83666388,4.9457527 C5.17023805,2.63200749 8.79694405,2.38184155 11.4101493,4.19525488 C11.6475905,4.36093864 11.877177,4.54276113 12.0962605,4.74143512 L12.2336294,4.86956797 L12.2336294,4.86956797 L12.9832892,5.61660338 L12.9832892,5.61660338 L13.5502435,6.1938268 L13.5502435,6.1938268 L14.0130087,6.67789401 L14.0130087,6.67789401 L14.263834,6.94908465 L14.263834,6.94908465 C14.5390658,7.25191139 14.5145918,7.71862451 14.2091698,7.99151756 C13.9037478,8.26441062 13.4330349,8.24014457 13.1578031,7.93731782 L12.8913403,7.64979134 L12.8913403,7.64979134 L12.4477108,7.18681824 L12.4477108,7.18681824 L12.096033,6.82782404 L12.096033,6.82782404 L11.258958,5.98959368 L11.258958,5.98959368 L11.0761793,5.81679405 C9.03093379,3.97359803 5.86463001,4.03119791 3.88945065,5.98959368 C1.97509573,7.88768186 2.05995646,10.9162169 3.93668935,13.3972647 C4.41565666,14.0304612 5.10261021,14.8004403 5.96666915,15.6732513 L6.50611012,16.2090061 L6.50611012,16.2090061 L6.83097465,16.523674 L7.20800088,16.8750103 L7.20800088,16.8750103 L7.6866432,17.3055387 L7.6866432,17.3055387 L8.26666292,17.8150281 L8.26666292,17.8150281 L8.94782133,18.4032469 L8.94782133,18.4032469 L10.0129468,19.3096068 L11.0422213,20.1753456 C11.5566263,20.6061311 12.2922149,20.6375409 12.8387899,20.2692986 L12.9613806,20.1772251 L14.4496654,18.9260158 L14.4496654,18.9260158 L15.6306143,17.9131942 L15.6306143,17.9131942 L16.2101097,17.4045947 L16.2101097,17.4045947 L16.6925376,16.9705724 L16.6925376,16.9705724 L17.0776837,16.6113375 L17.6309965,16.0744731 L17.6309965,16.0744731 L18.1832515,15.5210291 L18.1832515,15.5210291 L18.6886033,14.9950412 C19.2501558,14.3981311 19.7124601,13.8610904 20.0633107,13.3972647 C21.9400435,10.9162169 22.0249043,7.88768186 20.1105493,5.98959368 C18.425519,4.31888144 15.8736076,4.03153766 13.8903896,5.12756232 C13.6063785,4.84016674 13.3139487,4.5476526 13.0136027,4.24985871 L12.8052062,4.05089511 L12.8052062,4.05089511 C15.3985593,2.3969063 18.8929646,2.69467313 21.1633361,4.9457527 C23.5902337,7.35202838 23.546878,11.0704961 21.417975,14.0601662 L21.1832189,14.3762251 C20.6447445,15.0751042 19.9024174,15.8988418 18.9843236,16.8196368 L18.4126,17.3835384 L18.4126,17.3835384 L17.9343441,17.8410169 L17.9343441,17.8410169 L17.6420917,18.1102789 L17.6420917,18.1102789 L16.9241523,18.7506903 L16.9241523,18.7506903 L16.0278411,19.5274006 L16.0278411,19.5274006 L15.2382199,20.1997036 L15.2382199,20.1997036 L13.9201322,21.3066313 C12.8104573,22.2324481 11.1894663,22.230965 10.0815167,21.3031191 L8.64272766,20.0904983 L8.64272766,20.0904983 L7.67367345,19.2616331 L7.67367345,19.2616331 L7.05271885,18.7220618 L7.05271885,18.7220618 L6.21878285,17.9785291 L6.21878285,17.9785291 L5.83868196,17.625539 L5.61976551,17.4149319 C4.37507869,16.2085247 3.3987126,15.1464142 2.74559709,14.2829931 C0.45683374,11.2572396 0.34909382,7.41218527 2.83666388,4.9457527 Z" id="路径" fill="#000000" fill-rule="nonzero"></path>
    </g>
</svg>