<?xml version="1.0" encoding="UTF-8"?>
<svg width="24px" height="24px" viewBox="0 0 24 24" version="1.1" xmlns="http://www.w3.org/2000/svg" xmlns:xlink="http://www.w3.org/1999/xlink">
    <title>xxxhdpi/ic_gallery_public_Favorite_filled</title>
    <defs>
        <path d="M13.424038,3.69647861 C15.9339161,2.45916234 19.0692777,2.87044467 21.1633361,4.93032561 C23.6509062,7.37729563 23.5431663,11.1920087 21.2544029,14.1938861 C20.5549023,15.1113314 19.4844445,16.2550453 18.1113405,17.5579434 L18.1113405,17.5579434 L18.0652727,17.6015033 C17.3935691,18.2344907 16.2316745,19.2385987 14.5737753,20.6194402 L14.5737753,20.6194402 L13.5975091,21.4287882 C12.6735203,22.1915911 11.3257185,22.1902628 10.4032854,21.4256402 C8.13949159,19.5491377 6.62191698,18.247727 5.83957568,17.5108975 L5.83957568,17.5108975 L5.61976551,17.3011109 C4.37507869,16.1042233 3.3987126,15.050494 2.74559709,14.1938861 C0.45683374,11.1920087 0.34909382,7.37729563 2.83666388,4.93032561 C5.34847638,2.45950883 9.35850347,2.36067616 11.9901731,4.6338276 L11.9901731,4.6338276 L11.9998642,4.64247936 C12.7715302,5.40155085 13.8545344,6.48402475 14.2539859,6.91082749 L14.2539859,6.91082749 L14.3949977,7.0630225 C14.6702295,7.36345965 15.1409424,7.38753421 15.4463644,7.11679455 C15.7517863,6.84605489 15.7762604,6.38302459 15.5010286,6.08258744 C15.2782899,5.83945062 14.8484041,5.39904164 14.361449,4.90889801 L13.7974626,4.34428492 C13.6094526,4.15699766 13.4213346,3.97047438 13.2406875,3.79216551 Z" id="path-1"></path>
    </defs>
    <g id="ic_gallery_public_Favorite_filled" stroke="none" stroke-width="1" fill="none" fill-rule="evenodd">
        <mask id="mask-2" fill="white">
            <use xlink:href="#path-1"></use>
        </mask>
        <use id="路径-2" fill="#000000" fill-rule="nonzero" xlink:href="#path-1"></use>
    </g>
</svg>