<?xml version="1.0" encoding="UTF-8"?>
<svg width="24px" height="24px" viewBox="0 0 24 24" version="1.1" xmlns="http://www.w3.org/2000/svg" xmlns:xlink="http://www.w3.org/1999/xlink">
    <title>xxxhdpi/ic_navigation_albums_line</title>
    <g id="ic_navigation_albums_line" stroke="none" stroke-width="1" fill="none" fill-rule="evenodd">
        <path d="M5.4867991,5.06756757 L16.0132009,5.06756757 L16.4235832,5.07188219 L16.7871609,5.08476043 L17.1087593,5.10610379 C17.436161,5.13377548 17.6981555,5.17617598 17.9223487,5.23274189 L18.0718594,5.27415909 L18.0718594,5.27415909 L18.1658281,5.30426462 L18.2559364,5.33635102 L18.3427875,5.370406 L18.468276,5.42515261 L18.468276,5.42515261 L18.5898283,5.48425928 L18.70948,5.54768445 L18.70948,5.54768445 C19.2798504,5.86096612 19.7274804,6.32069423 20.0325178,6.90648002 L20.0942739,7.0293655 L20.0942739,7.0293655 L20.1518251,7.15420301 L20.205131,7.28308314 L20.2382898,7.37228151 L20.2695318,7.46482519 L20.3127747,7.61126816 L20.3391724,7.71488512 C20.390013,7.92742588 20.4291013,8.17304656 20.4560058,8.47404676 L20.4832596,8.88075363 L20.4832596,8.88075363 L20.4957989,9.25415783 L20.5,9.67563151 L20.5,16.8919361 L20.4957989,17.3134097 L20.4832596,17.6868139 L20.4624779,18.0171041 C20.4355344,18.3533545 20.3942497,18.62243 20.3391724,18.8526824 L20.2988451,19.006234 L20.2382898,19.1952861 L20.205131,19.2844844 L20.1518251,19.4133646 L20.1518251,19.4133646 L20.0942739,19.5382021 L20.0942739,19.5382021 L20.0325178,19.6610875 L20.0325178,19.6610875 C19.7274804,20.2468733 19.2798504,20.7066014 18.70948,21.0198831 L18.6098473,21.0730362 L18.468276,21.142415 L18.468276,21.142415 L18.3427875,21.1971616 L18.3427875,21.1971616 L18.2559364,21.2312165 L18.1658281,21.263303 L18.0232389,21.3077146 L17.9223487,21.3348257 C17.7154011,21.3870404 17.4762441,21.4271851 17.183165,21.4548168 L16.8713076,21.4782611 L16.610921,21.4903106 L16.2245442,21.4989193 L16.0132009,21.5 L5.4867991,21.5 L5.07641683,21.4956854 L4.88907895,21.4903106 L4.54709404,21.4731874 L4.39124074,21.4614638 C4.06383903,21.4337921 3.80184451,21.3913916 3.5776513,21.3348257 L3.42814062,21.2934085 L3.3341719,21.263303 L3.24406358,21.2312165 L3.15721253,21.1971616 L3.03172398,21.142415 L3.03172398,21.142415 L2.91017167,21.0833083 L2.79052002,21.0198831 C2.22014965,20.7066014 1.77251964,20.2468733 1.46748223,19.6610875 L1.40572614,19.5382021 L1.40572614,19.5382021 L1.34817491,19.4133646 L1.294869,19.2844844 L1.2617102,19.1952861 L1.1872253,18.9562994 L1.16082763,18.8526824 C1.10998702,18.6401417 1.07089871,18.394521 1.04399417,18.0935208 L1.01674041,17.6868139 L1.01674041,17.6868139 L1.00420108,17.3134097 L1,16.8919361 L1.00026332,9.56548557 L1.00420108,9.25415783 L1.01674041,8.88075363 L1.03752211,8.55046346 C1.0644656,8.21421306 1.1057503,7.94513761 1.16082763,7.71488512 L1.20115491,7.56133361 L1.23046818,7.46482519 L1.2617102,7.37228151 L1.33899469,7.17534584 L1.33899469,7.17534584 L1.39584117,7.04997973 L1.46748223,6.90648002 L1.46748223,6.90648002 C1.77251964,6.32069423 2.22014965,5.86096612 2.79052002,5.54768445 L2.87017712,5.50492322 L3.03172398,5.42515261 L3.03172398,5.42515261 L3.15721253,5.370406 L3.15721253,5.370406 L3.24406358,5.33635102 L3.3341719,5.30426462 L3.47676111,5.25985301 L3.47676111,5.25985301 L3.5776513,5.23274189 C3.78459888,5.18052721 4.02375586,5.14038246 4.31683501,5.11275077 L4.46796862,5.09997973 L4.71283906,5.08476043 L4.71283906,5.08476043 L5.07641683,5.07188219 L5.4867991,5.06756757 Z M16.6256139,6.61739751 L16.2959116,6.60976418 L5.19886103,6.60976418 L4.78468461,6.62098685 L4.44640173,6.64348813 L4.44640173,6.64348813 L4.27392467,6.66290856 L4.27392467,6.66290856 L4.12054988,6.68706956 L4.02739027,6.70593211 L3.85877796,6.75059792 C3.80589988,6.76707753 3.75594193,6.78518055 3.70768641,6.80500423 L3.56680947,6.86973449 L3.49791831,6.90615343 C3.18895065,7.07585703 2.95543974,7.31567904 2.79020203,7.63299718 L2.75571745,7.70172285 L2.72374033,7.77112793 L2.66704807,7.91541567 C2.6410575,7.99024523 2.61853517,8.06996315 2.59918813,8.15843866 L2.58088868,8.24997668 L2.564641,8.34821293 L2.54397413,8.51000736 L2.54397413,8.51000736 L2.5229919,8.75720216 L2.50904495,9.04666682 L2.50161249,9.38527999 L2.50161249,17.1822876 L2.50904495,17.5209008 L2.5229919,17.8103654 L2.54397413,18.0575602 L2.564641,18.2193546 L2.58088868,18.3175909 L2.59918813,18.4091289 C2.61853517,18.4976044 2.6410575,18.5773223 2.66704807,18.6521519 L2.72374033,18.7964396 L2.79020203,18.9345704 C2.95543974,19.2518885 3.18895065,19.4917105 3.49791831,19.6614141 L3.63241404,19.7296721 L3.70149142,19.7600051 L3.77290473,19.7878966 C3.84576509,19.8145896 3.92338517,19.8377206 4.00953238,19.8575906 L4.09866151,19.8763846 L4.19431259,19.8930714 L4.35184927,19.9142968 L4.35184927,19.9142968 L4.46746802,19.9260081 L4.72789924,19.9438779 L4.87438611,19.9501701 L5.38897824,19.9592782 L16.1110218,19.9592782 L16.6256139,19.9501701 L16.9074611,19.9358462 L17.032532,19.9260081 L17.2026772,19.9077179 L17.2026772,19.9077179 L17.3056874,19.8930714 L17.4013385,19.8763846 L17.4904676,19.8575906 C17.5766148,19.8377206 17.6542349,19.8145896 17.7270953,19.7878966 L17.7985086,19.7600051 L17.9351646,19.6968307 L18.0020817,19.6614141 C18.3110494,19.4917105 18.5445603,19.2518885 18.709798,18.9345704 L18.7762597,18.7964396 L18.8329519,18.6521519 C18.8589425,18.5773223 18.8814648,18.4976044 18.9008119,18.4091289 L18.9191113,18.3175909 L18.935359,18.2193546 L18.9560259,18.0575602 L18.9560259,18.0575602 L18.9770081,17.8103654 L18.9909551,17.5209008 L18.9983875,17.1822876 L18.9983875,9.38527999 L18.9909551,9.04666682 L18.9770081,8.75720216 L18.94962,8.45400724 L18.94962,8.45400724 L18.935359,8.34821293 L18.9191113,8.24997668 L18.9008119,8.15843866 C18.8814648,8.06996315 18.8589425,7.99024523 18.8329519,7.91541567 L18.7762597,7.77112793 L18.7442825,7.70172285 L18.709798,7.63299718 C18.5445603,7.31567904 18.3110494,7.07585703 18.0020817,6.90615343 L17.9351646,6.87073684 L17.867586,6.83789547 L17.7270953,6.77967099 C17.6542349,6.75297797 17.5766148,6.72984693 17.4904676,6.709977 L17.3056874,6.67449616 L17.1481507,6.65327073 L16.9074611,6.63172141 L16.6256139,6.61739751 Z M8.40623426,2.50103398 L16.7126566,2.50024502 L17.1739926,2.50610692 L17.3885365,2.51195144 L17.7875512,2.5294232 L18.1493689,2.55454609 L18.3174165,2.5699545 L18.7035129,2.616708 L18.7035129,2.616708 L18.9809847,2.66250522 L19.1730526,2.70170327 L19.1730526,2.70170327 L19.353007,2.74502527 L19.353007,2.74502527 L19.5223161,2.79244127 L19.7340401,2.86197925 L19.9810548,2.95895358 L19.9810548,2.95895358 L20.168796,3.04448796 L20.2605729,3.08988238 L20.4421143,3.18588127 C21.2569291,3.6334265 21.8964005,4.29018095 22.3321682,5.12701779 L22.4256408,5.31346571 L22.512338,5.50326496 L22.5921905,5.69999001 L22.6475465,5.85422911 L22.6475465,5.85422911 L22.7152546,6.07167534 L22.7759278,6.30587715 L22.7759278,6.30587715 L22.8167745,6.4946746 L22.8167745,6.4946746 L22.853596,6.69641567 L22.853596,6.69641567 L22.8863633,6.91260833 L22.8863633,6.91260833 L22.915047,7.14476057 L22.915047,7.14476057 L22.9468893,7.48172925 L22.9600471,7.66297565 L22.9807926,8.05322657 L22.9940538,8.48346707 L22.9997614,8.95727159 L22.9989932,13.8935972 L22.9909705,14.3127699 L22.9750056,14.6877241 L22.9440084,15.1008417 L22.9440084,15.1008417 L22.9195846,15.3223249 L22.9008965,15.4601151 C22.8812506,15.5941851 22.8587365,15.7173654 22.8334014,15.8320956 L22.7932889,15.9981583 L22.7332844,16.2030207 L22.700511,16.299577 L22.6479163,16.4385923 L22.6105789,16.5281804 L22.5304927,16.7023832 L22.4657346,16.8308182 C22.2201441,17.3024437 21.8936771,17.7025712 21.4942661,18.0230539 L21.4985008,17.7985782 L21.4985008,17.7985782 L21.4984144,8.74192331 L21.4911629,8.32874285 L21.4732788,7.87277283 L21.4575441,7.6281417 L21.4575441,7.6281417 L21.4303757,7.33187102 L21.4140266,7.19530722 L21.375548,6.94255708 L21.3533185,6.8252645 L21.3160956,6.65912305 L21.3160956,6.65912305 L21.2740681,6.50307916 L21.2740681,6.50307916 L21.2432972,6.40373778 L21.1928867,6.26037471 L21.1928867,6.26037471 L21.1563706,6.1677587 L21.0971076,6.03189092 L21.0971076,6.03189092 L21.0094484,5.85353495 C20.7134804,5.28516576 20.2881281,4.84831742 19.734716,4.54435025 L19.5610536,4.4543219 L19.4287613,4.39345725 L19.4287613,4.39345725 L19.3385825,4.35595422 L19.1989922,4.30418125 L19.1989922,4.30418125 L19.0525994,4.2576319 L19.0525994,4.2576319 L18.8975866,4.21613265 L18.8975866,4.21613265 L18.7885583,4.19118638 L18.6743523,4.16835606 L18.5544302,4.14759026 L18.4282535,4.12883756 L18.1549816,4.09716581 L17.7686159,4.06798394 L17.7686159,4.06798394 L17.4184516,4.05246338 L17.0271115,4.04345269 L16.7768869,4.04092211 L16.7768869,4.04092211 L4.8458278,4.04054054 L4.38417877,4.04657982 L4.38417877,4.04657982 C4.67638696,3.66396601 5.03476921,3.34660895 5.4541436,3.10098908 L5.58791999,3.02607916 L5.7555418,2.94014866 L5.84098221,2.899946 L5.97266429,2.84312555 L6.06356978,2.80758332 L6.15758506,2.77392411 L6.40969263,2.69808502 L6.51874904,2.67110123 C6.63046004,2.6450814 6.75039875,2.62195882 6.88094054,2.60178197 L7.23075937,2.55750485 L7.63300545,2.52566993 L7.99809242,2.50927349 L8.40623426,2.50103398 Z" id="形状" fill="#000000" fill-rule="nonzero"></path>
    </g>
</svg>