<?xml version="1.0" encoding="UTF-8"?>
<svg width="24px" height="24px" viewBox="0 0 24 24" version="1.1" xmlns="http://www.w3.org/2000/svg" xmlns:xlink="http://www.w3.org/1999/xlink">
    <title>ic_photos</title>
    <g id="ic_photos" stroke="none" stroke-width="1" fill="none" fill-rule="evenodd">
        <g id="ic/navigation/photo_action" transform="translate(2.000000, 2.000000)" fill-rule="nonzero">
            <path d="M16,0 C18.209139,0 20,1.790861 20,4 L20,16 C20,18.209139 18.209139,20 16,20 L4,20 C1.790861,20 0,18.209139 0,16 L0,4 C0,1.790861 1.790861,0 4,0 L16,0 Z" id="路径" fill="#62778C"></path>
            <path d="M15.5863647,9.83040803 C15.9278857,9.93392181 16.2139555,10.0894067 16.8006866,10.6674148 L18.3533478,12.2198191 C18.4471216,12.3135774 18.4998237,12.4407465 18.4998237,12.5733517 L18.4984379,14.5799462 L18.4860088,15.0194859 C18.4488341,15.8324571 18.3381205,16.2669066 18.1603517,16.6491137 L18.0659094,16.8373743 C17.7826603,17.3670039 17.3670039,17.7826603 16.8373743,18.0659094 L16.757846,18.1074014 C16.2529022,18.3638654 15.7099686,18.5 14.3336866,18.5 L5.66631345,18.5 L5.20797976,18.4942144 L4.76997214,18.4741894 C3.96518516,18.4199694 3.56514425,18.2811786 3.16262573,18.0659094 C2.6329961,17.7826603 2.21733967,17.3670039 1.93409064,16.8373743 L1.84897594,16.6612512 C1.83296011,16.6256467 1.81602925,16.5869169 1.79818336,16.5450618 C1.75805942,16.4511841 1.77912161,16.3423608 1.85131193,16.27017 L4.68705939,13.4344051 C5.12348943,12.997975 5.39879972,12.7855837 5.64427199,12.6606258 L5.80494041,12.5887747 C5.85798352,12.5681426 5.91099383,12.5503291 5.96541201,12.5338352 C6.31913016,12.4266244 6.68086984,12.4266244 7.03458799,12.5338352 L7.1070521,12.5569472 L7.17859739,12.5824604 C7.46397916,12.6903961 7.74599755,12.8754064 8.24890986,13.370842 L8.3632243,13.4851003 C8.94932753,14.070348 9.89885603,14.0702419 10.4848285,13.4848634 L13.2388361,10.730978 C13.869235,10.100579 14.1634705,9.93761873 14.5171887,9.83040803 C14.8709069,9.72319732 15.2326465,9.72319732 15.5863647,9.83040803 Z M6.25,5.25 C7.21649831,5.25 8,6.03350169 8,7 C8,7.96649831 7.21649831,8.75 6.25,8.75 C5.28350169,8.75 4.5,7.96649831 4.5,7 C4.5,6.03350169 5.28350169,5.25 6.25,5.25 Z" id="形状结合" fill="#95ACC3"></path>
        </g>
    </g>
</svg>