<?xml version="1.0" encoding="UTF-8"?>
<svg width="56px" height="56px" viewBox="0 0 56 56" version="1.1" xmlns="http://www.w3.org/2000/svg" xmlns:xlink="http://www.w3.org/1999/xlink">
    <title>ic_play video</title>
    <defs>
        <path d="M33.6874291,22.4753667 L40.0504546,33.5545171 C40.7442865,34.7626008 40.327403,36.304408 39.1193193,36.9982399 C38.7370308,37.2177975 38.303877,37.3333333 37.8630256,37.3333333 L25.1369744,37.3333333 C23.7438237,37.3333333 22.6144519,36.2039615 22.6144519,34.8108108 C22.6144519,34.3699594 22.7299878,33.9368056 22.9495454,33.5545171 L29.3125709,22.4753667 C30.0064028,21.267283 31.54821,20.8503995 32.7562937,21.5442314 C33.1436395,21.7666935 33.464967,22.0880209 33.6874291,22.4753667 Z" id="path-1"></path>
    </defs>
    <g id="ic_play-video" stroke="none" stroke-width="1" fill="none" fill-rule="evenodd">
        <g id="ic/gallery/public/play-video">
            <circle id="椭圆形" fill-opacity="0.5" fill="#000000" cx="28" cy="28" r="26.8333333"></circle>
            <path d="M28,0 C43.463973,0 56,12.536027 56,28 C56,43.463973 43.463973,56 28,56 C12.536027,56 0,43.463973 0,28 C0,12.536027 12.536027,0 28,0 Z M28,1.16666667 C13.1803592,1.16666667 1.16666667,13.1803592 1.16666667,28 C1.16666667,42.8196408 13.1803592,54.8333333 28,54.8333333 C42.8196408,54.8333333 54.8333333,42.8196408 54.8333333,28 C54.8333333,13.1803592 42.8196408,1.16666667 28,1.16666667 Z" id="椭圆形" fill-opacity="0.297120848" fill="#FFFFFF" fill-rule="nonzero"></path>
            <mask id="mask-2" fill="white">
                <use xlink:href="#path-1"></use>
            </mask>
            <use id="多边形备份-5" fill="#FFFFFF" transform="translate(31.500000, 28.000000) rotate(-270.000000) translate(-31.500000, -28.000000) " xlink:href="#path-1"></use>
        </g>
    </g>
</svg>