<?xml version="1.0" encoding="UTF-8"?>
<svg width="24px" height="24px" viewBox="0 0 24 24" version="1.1" xmlns="http://www.w3.org/2000/svg" xmlns:xlink="http://www.w3.org/1999/xlink">
    <title>ic/edit/photo/blur/linear</title>
    <g id="ic/edit/photo/blur/linear" stroke="none" stroke-width="1" fill="none" fill-rule="evenodd">
        <path d="M21.1601828,18.5 C21.5743963,18.5 21.9101828,18.8357864 21.9101828,19.25 C21.9101828,19.6642136 21.5743963,20 21.1601828,20 L2.83981722,20 C2.42560366,20 2.08981722,19.6642136 2.08981722,19.25 C2.08981722,18.8357864 2.42560366,18.5 2.83981722,18.5 L21.1601828,18.5 Z M18.1812615,15 C18.5954751,15 18.9312615,15.3357864 18.9312615,15.75 C18.9312615,16.1642136 18.5954751,16.5 18.1812615,16.5 L5.81873845,16.5 C5.40452489,16.5 5.06873845,16.1642136 5.06873845,15.75 C5.06873845,15.3357864 5.40452489,15 5.81873845,15 L18.1812615,15 Z M18.1812615,7.75 C18.5954751,7.75 18.9312615,8.08578644 18.9312615,8.5 C18.9312615,8.91421356 18.5954751,9.25 18.1812615,9.25 L5.81873845,9.25 C5.40452489,9.25 5.06873845,8.91421356 5.06873845,8.5 C5.06873845,8.08578644 5.40452489,7.75 5.81873845,7.75 L18.1812615,7.75 Z M21.1601828,4.25 C21.5743963,4.25 21.9101828,4.58578644 21.9101828,5 C21.9101828,5.41421356 21.5743963,5.75 21.1601828,5.75 L2.83981722,5.75 C2.42560366,5.75 2.08981722,5.41421356 2.08981722,5 C2.08981722,4.58578644 2.42560366,4.25 2.83981722,4.25 L21.1601828,4.25 Z" id="形状" fill="#000000" fill-rule="nonzero"></path>
    </g>
</svg>