<?xml version="1.0" encoding="UTF-8"?>
<svg width="24px" height="24px" viewBox="0 0 24 24" version="1.1" xmlns="http://www.w3.org/2000/svg" xmlns:xlink="http://www.w3.org/1999/xlink">
    <title>ic/edit/photo/label/tilt</title>
    <g id="ic/edit/photo/label/tilt" stroke="none" stroke-width="1" fill="none" fill-rule="evenodd">
        <path d="M17.4882897,2.22907254 C17.9033924,2.22907254 18.2398995,2.56557971 18.2398995,2.98068235 C18.2398995,3.39578498 17.9033924,3.73229215 17.4882897,3.73229215 L14.6629231,3.73207254 L10.2329231,20.2670725 L12.9786309,20.2677078 C13.3937335,20.2677078 13.7302407,20.604215 13.7302407,21.0193177 C13.7302407,21.4344203 13.3937335,21.7709275 12.9786309,21.7709275 L5.46253286,21.7709275 C5.04743023,21.7709275 4.71092306,21.4344203 4.71092306,21.0193177 C4.71092306,20.604215 5.04743023,20.2677078 5.46253286,20.2677078 L8.33592306,20.2670725 L12.7669231,3.73207254 L9.97219169,3.73229215 C9.55708906,3.73229215 9.22058189,3.39578498 9.22058189,2.98068235 C9.22058189,2.56557971 9.55708906,2.22907254 9.97219169,2.22907254 L17.4882897,2.22907254 Z" id="路径" fill="#000000"></path>
    </g>
</svg>